<?xml version="1.0" encoding="UTF-8"?>
<svg version="1.1" xmlns="http://www.w3.org/2000/svg" width="192" height="288">
<path d="M0 0 C1.14239136 0.00303635 1.14239136 0.00303635 2.30786133 0.00613403 C3.10619385 0.00438171 3.90452637 0.00262939 4.72705078 0.00082397 C7.37900942 -0.00359511 10.03090195 -0.00065636 12.68286133 0.00271606 C14.51749688 0.00204304 16.35213234 0.00107303 18.18676758 -0.00018311 C22.03703661 -0.00166015 25.88728248 0.0004947 29.73754883 0.00515747 C34.6844263 0.01085476 39.63124952 0.0075758 44.578125 0.00158501 C48.36808688 -0.00202042 52.15803579 -0.00088211 55.94799805 0.0017128 C57.77254238 0.00238212 59.59708788 0.00155347 61.42163086 -0.00076675 C63.96707294 -0.00329298 66.51242592 0.00054687 69.05786133 0.00613403 C69.81945557 0.0041098 70.5810498 0.00208557 71.36572266 0 C76.56859875 0.02126599 76.56859875 0.02126599 77.68286133 1.13552856 C77.78201927 3.03251705 77.81085447 4.93321643 77.81225586 6.83279419 C77.81540802 8.05075684 77.81856018 9.26871948 77.82180786 10.52359009 C77.82001808 11.86298661 77.81796712 13.20238281 77.81567383 14.54177856 C77.81634692 15.90558896 77.817317 17.26939924 77.818573 18.63320923 C77.82004971 21.49483378 77.81789629 24.35642716 77.81323242 27.2180481 C77.80753513 30.8937147 77.81081428 34.5693083 77.81680489 38.24497223 C77.82041124 41.0621496 77.81927157 43.87930954 77.81667709 46.69648743 C77.81600803 48.0521292 77.81683554 49.40777253 77.81915665 50.76341248 C77.82168434 52.65502901 77.81715146 54.54665105 77.81225586 56.43826294 C77.81146027 57.51668457 77.81066467 58.5951062 77.80984497 59.70620728 C77.68286133 62.13552856 77.68286133 62.13552856 76.68286133 63.13552856 C73.81816808 63.20883187 70.98392459 63.22770688 68.12036133 63.19802856 C65.33598633 63.17740356 62.55161133 63.15677856 59.68286133 63.13552856 C59.68286133 69.73552856 59.68286133 76.33552856 59.68286133 83.13552856 C58.36286133 83.13552856 57.04286133 83.13552856 55.68286133 83.13552856 C54.16699219 81.40725708 54.16699219 81.40725708 52.64770508 79.01443481 C47.7738458 72.34881728 42.62502092 65.57151818 34.24914551 63.5473938 C20.9281106 61.50137838 7.08707765 62.36446971 -6.31713867 63.13552856 C-6.34026604 55.06900682 -6.35805577 47.00249884 -6.36895084 38.93595219 C-6.37417881 35.19069819 -6.38127489 31.44546681 -6.39257812 27.70022583 C-6.40341008 24.08871169 -6.40941616 20.47721936 -6.41201591 16.86569023 C-6.41386961 15.48492527 -6.41748917 14.10416156 -6.42286873 12.72340584 C-6.43008314 10.79576904 -6.43054676 8.8681105 -6.43066406 6.94046021 C-6.43288467 5.84125748 -6.43510529 4.74205475 -6.43739319 3.60954285 C-6.21695569 -0.92555099 -3.99384539 0.01632425 0 0 Z M-0.31713867 7.13552856 C-0.33776367 15.19990356 -0.35838867 23.26427856 -0.37963867 31.57302856 C-0.38874268 34.12206909 -0.39784668 36.67110962 -0.40722656 39.2973938 C-0.41014556 41.3046361 -0.41269415 43.31187899 -0.41479492 45.31912231 C-0.41991089 46.37200439 -0.42502686 47.42488647 -0.43029785 48.50967407 C-0.4304187 49.50438721 -0.43053955 50.49910034 -0.43066406 51.5239563 C-0.43288467 52.39221542 -0.43510529 53.26047455 -0.43739319 54.15504456 C-0.53668534 56.13696537 -0.53668534 56.13696537 0.68286133 57.13552856 C3.42523483 57.14718685 6.14941868 57.10085589 8.88989258 57.03005981 C11.51382931 57.00595132 14.13770752 56.99249089 16.76171875 56.97903442 C18.56478899 56.95858342 20.3677577 56.91864342 22.16992188 56.85794067 C38.00442045 56.35639547 38.00442045 56.35639547 43.58666992 60.88699341 C46.59765582 63.73490374 49.13915319 66.87112884 51.68286133 70.13552856 C52.01286133 70.13552856 52.34286133 70.13552856 52.68286133 70.13552856 C52.68286133 65.84552856 52.68286133 61.55552856 52.68286133 57.13552856 C53.97063477 57.14713013 55.2584082 57.15873169 56.58520508 57.17068481 C58.26358905 57.18006126 59.94197458 57.18916162 61.62036133 57.19802856 C62.47049805 57.20640747 63.32063477 57.21478638 64.1965332 57.22341919 C65.00541992 57.22664185 65.81430664 57.2298645 66.64770508 57.23318481 C67.39656982 57.23842163 68.14543457 57.24365845 68.91699219 57.24905396 C70.70953872 57.32894609 70.70953872 57.32894609 71.68286133 56.13552856 C71.77605582 54.60069887 71.80031933 53.06160774 71.79638672 51.5239563 C71.79620544 50.0318866 71.79620544 50.0318866 71.79602051 48.50967407 C71.79090454 47.45679199 71.78578857 46.40390991 71.78051758 45.31912231 C71.7795105 44.35687744 71.77850342 43.39463257 71.77746582 42.40322876 C71.77221593 38.79314998 71.75825481 35.18308813 71.74536133 31.57302856 C71.72473633 23.50865356 71.70411133 15.44427856 71.68286133 7.13552856 C47.92286133 7.13552856 24.16286133 7.13552856 -0.31713867 7.13552856 Z " fill="#FBFBFB" transform="translate(101.317138671875,32.864471435546875)"/>
<path d="M0 0 C18.1782037 -0.04010881 18.1782037 -0.04010881 25.90039062 -0.04882812 C31.17880248 -0.05481625 36.45719707 -0.06191572 41.7355957 -0.07543945 C45.98901115 -0.08626944 50.24240809 -0.09227707 54.49583626 -0.09487724 C56.12221633 -0.09673129 57.74859534 -0.10035152 59.37496758 -0.10573006 C61.64510193 -0.11294198 63.91515885 -0.11399088 66.18530273 -0.11352539 C68.12722755 -0.11685631 68.12722755 -0.11685631 70.10838318 -0.12025452 C73 0 73 0 74 1 C74.09952293 3.14200324 74.12799679 5.28732705 74.12939453 7.43164062 C74.13202301 8.43894478 74.13202301 8.43894478 74.13470459 9.46659851 C74.1391223 11.69650828 74.13618542 13.92633936 74.1328125 16.15625 C74.13348556 17.69942236 74.13445561 19.24259461 74.13571167 20.7857666 C74.13718853 24.0240174 74.13503447 27.26224067 74.13037109 30.50048828 C74.1246738 34.66042523 74.12795287 38.82029766 74.13394356 42.98023224 C74.13754949 46.16799408 74.13641044 49.35574051 74.13381577 52.54350281 C74.13314658 54.07777412 74.13397461 55.61204682 74.13629532 57.14631653 C74.13882238 59.28703541 74.13498054 61.42764842 74.12939453 63.56835938 C74.12859894 64.78890015 74.12780334 66.00944092 74.12698364 67.26696777 C74 70 74 70 73 71 C70.73008113 71.09439978 68.45718033 71.11742226 66.18530273 71.11352539 C65.11706772 71.11374443 65.11706772 71.11374443 64.0272522 71.1139679 C61.66266888 71.1132687 59.29816339 71.10547606 56.93359375 71.09765625 C55.29834537 71.09579209 53.66309643 71.09436818 52.02784729 71.09336853 C47.71565215 71.08954318 43.40349048 71.07971275 39.09130859 71.06866455 C33.9218032 71.05665627 28.75228664 71.05204827 23.5827713 71.04621124 C15.72182423 71.036501 7.86095065 71.01734458 0 71 C0 47.57 0 24.14 0 0 Z M6 6 C5.979375 15.549375 5.95875 25.09875 5.9375 34.9375 C5.928396 37.95640381 5.91929199 40.97530762 5.90991211 44.08569336 C5.9069932 46.46207637 5.90444459 48.83845988 5.90234375 51.21484375 C5.89722778 52.462052 5.89211182 53.70926025 5.88684082 54.9942627 C5.88671997 56.17170044 5.88659912 57.34913818 5.88647461 58.56225586 C5.884254 59.59039902 5.88203339 60.61854218 5.87974548 61.67784119 C5.73815391 63.9613511 5.73815391 63.9613511 7 65 C8.8718094 65.09386381 10.7471806 65.11743804 12.62133789 65.11352539 C13.82250748 65.11344986 15.02367706 65.11337433 16.26124573 65.11329651 C18.22214394 65.10555458 18.22214394 65.10555458 20.22265625 65.09765625 C21.56644132 65.09579198 22.91022707 65.09436812 24.25401306 65.09336853 C27.79682277 65.08954402 31.3395917 65.07971432 34.88238525 65.06866455 C38.49515216 65.05844899 42.10792584 65.0538159 45.72070312 65.04882812 C52.81383813 65.03862218 59.90686107 65.01905051 67 65 C67 45.53 67 26.06 67 6 C46.87 6 26.74 6 6 6 Z " fill="#FBFBFB" transform="translate(53,142)"/>
<path d="M0 0 C0.82290527 0.00202423 1.64581055 0.00404846 2.49365234 0.00613403 C3.33331543 0.00517731 4.17297852 0.00422058 5.03808594 0.00323486 C6.81689529 0.00255306 8.59570712 0.00440737 10.37451172 0.00857544 C13.10699011 0.01392371 15.83930411 0.00863048 18.57177734 0.00222778 C20.29573604 0.00288856 22.01969464 0.00416973 23.74365234 0.00613403 C24.56655762 0.0041098 25.38946289 0.00208557 26.23730469 0 C32.0037018 0.02399599 32.0037018 0.02399599 33.11865234 1.13894653 C33.24365234 3.63894653 33.24365234 3.63894653 33.11865234 6.13894653 C31.21419908 8.04339979 27.83527697 7.26953515 25.31005859 7.27175903 C24.28717995 7.27319412 24.28717995 7.27319412 23.24363708 7.2746582 C21.79857288 7.27533992 20.35350562 7.27348622 18.90844727 7.26931763 C16.69394042 7.26397737 14.47963715 7.26925858 12.26513672 7.27566528 C10.86344356 7.27500434 9.46175053 7.27372284 8.06005859 7.27175903 C6.7781665 7.2706311 5.49627441 7.26950317 4.17553711 7.26834106 C1.11865234 7.13894653 1.11865234 7.13894653 -0.88134766 6.13894653 C-0.88134766 23.62894653 -0.88134766 41.11894653 -0.88134766 59.13894653 C0.60365234 58.64394653 0.60365234 58.64394653 2.11865234 58.13894653 C4.18893507 58.04972768 6.26202824 58.02135002 8.33422852 58.02542114 C10.25588081 58.02553444 10.25588081 58.02553444 12.21635437 58.02565002 C13.61477701 58.03075666 15.01319924 58.03597266 16.41162109 58.04129028 C17.84222871 58.04315565 19.27283696 58.04457899 20.70344543 58.045578 C24.46651985 58.04939387 28.2295556 58.05921621 31.99261475 58.07028198 C36.50889029 58.08231585 41.02517877 58.08690278 45.54146576 58.09273529 C52.40055484 58.10242846 59.25955909 58.1215915 66.11865234 58.13894653 C66.11865234 48.23894653 66.11865234 38.33894653 66.11865234 28.13894653 C68.09865234 28.13894653 70.07865234 28.13894653 72.11865234 28.13894653 C73.61506602 31.13177389 73.26088213 34.20173259 73.25146484 37.48269653 C73.25242157 38.20759277 73.2533783 38.93248901 73.25436401 39.67935181 C73.25504478 41.2125965 73.2531977 42.74584409 73.24902344 44.27908325 C73.24367368 46.62957211 73.24897187 48.97986988 73.25537109 51.33035278 C73.25471029 52.81863446 73.25342909 54.30691601 73.25146484 55.79519653 C73.25348907 56.50043457 73.25551331 57.20567261 73.25759888 57.93228149 C73.23361477 62.90902168 73.23361477 62.90902168 72.11865234 65.13894653 C46.04865234 65.13894653 19.97865234 65.13894653 -6.88134766 65.13894653 C-6.88134766 60.84894653 -6.88134766 56.55894653 -6.88134766 52.13894653 C-10.18134766 52.13894653 -13.48134766 52.13894653 -16.88134766 52.13894653 C-16.88134766 39.59894653 -16.88134766 27.05894653 -16.88134766 14.13894653 C-13.58134766 14.13894653 -10.28134766 14.13894653 -6.88134766 14.13894653 C-6.89294922 13.2121106 -6.90455078 12.28527466 -6.91650391 11.33035278 C-6.92552734 10.13281372 -6.93455078 8.93527466 -6.94384766 7.70144653 C-6.95544922 6.5064856 -6.96705078 5.31152466 -6.97900391 4.08035278 C-6.80759415 -1.08250921 -4.60069224 0.01914508 0 0 Z M-10.88134766 20.13894653 C-10.88134766 28.71894653 -10.88134766 37.29894653 -10.88134766 46.13894653 C-9.56134766 45.80894653 -8.24134766 45.47894653 -6.88134766 45.13894653 C-6.88134766 36.88894653 -6.88134766 28.63894653 -6.88134766 20.13894653 C-8.20134766 20.13894653 -9.52134766 20.13894653 -10.88134766 20.13894653 Z " fill="#FBFBFB" transform="translate(57.88134765625,72.86105346679688)"/>
<path d="M0 0 C4.62 0 9.24 0 14 0 C16.2231662 5.76092177 18.1664808 11.55122947 19.953125 17.4609375 C20.21760437 18.33271637 20.48208374 19.20449524 20.75457764 20.10269165 C21.30728039 21.92917496 21.85846953 23.75611693 22.40820312 25.58349609 C23.25450465 28.38993797 24.11152065 31.19297334 24.96875 33.99609375 C25.50586884 35.77584246 26.04235035 37.55578367 26.578125 39.3359375 C26.96547821 40.59523575 26.96547821 40.59523575 27.36065674 41.87997437 C29.11428667 47.77142666 29.11428667 47.77142666 28 50 C26.68 50 25.36 50 24 50 C23.87882812 50.79664063 23.75765625 51.59328125 23.6328125 52.4140625 C23.46523437 53.47367188 23.29765625 54.53328125 23.125 55.625 C22.88136719 57.19121094 22.88136719 57.19121094 22.6328125 58.7890625 C22.00329938 61.98325869 21.09447268 64.93731594 20 68 C16.68751813 68.02888146 13.37506833 68.04675799 10.0625 68.0625 C9.11697266 68.07087891 8.17144531 68.07925781 7.19726562 68.08789062 C5.84858398 68.09272461 5.84858398 68.09272461 4.47265625 68.09765625 C3.22367554 68.10551147 3.22367554 68.10551147 1.94946289 68.11352539 C0 68 0 68 -1 67 C-1.13327592 65.48410361 -1.20341259 63.96255143 -1.24609375 62.44140625 C-1.29540039 61.02504883 -1.29540039 61.02504883 -1.34570312 59.58007812 C-1.405829 57.60359981 -1.46322369 55.62703608 -1.51757812 53.65039062 C-1.72365469 47.88413512 -2.35260702 42.57538318 -3.77758789 36.97631836 C-3.85098389 36.3241333 -3.92437988 35.67194824 -4 35 C-3.34 34.34 -2.68 33.68 -2 33 C-0.68 33 0.64 33 2 33 C2.99 35.97 3.98 38.94 5 42 C9.95 42.33 14.9 42.66 20 43 C14.555 25.18 14.555 25.18 9 7 C6.36 7 3.72 7 1 7 C0.34 6.34 -0.32 5.68 -1 5 C-0.67 3.35 -0.34 1.7 0 0 Z M6 50 C6 53.96 6 57.92 6 62 C8.97 62 11.94 62 15 62 C16.35148541 57.69214025 17 54.58042408 17 50 C13.37 50 9.74 50 6 50 Z " fill="#FCFCFC" transform="translate(131,145)"/>
<path d="M0 0 C2.31243792 -0.02685412 4.6249627 -0.04632841 6.9375 -0.0625 C8.22527344 -0.07410156 9.51304688 -0.08570313 10.83984375 -0.09765625 C14 0 14 0 15 1 C15.04063832 2.66617115 15.042721 4.33388095 15 6 C11.52674819 7.1577506 8.63932552 7.06866652 5 7 C4.70230713 8.0194873 4.40461426 9.03897461 4.09790039 10.08935547 C2.99467386 13.86563396 1.88895313 17.64117826 0.7824707 21.41650391 C0.3035974 23.05172065 -0.17459596 24.68713668 -0.65209961 26.32275391 C-1.3378999 28.67142405 -2.02612879 31.01937063 -2.71484375 33.3671875 C-2.92842026 34.10057343 -3.14199677 34.83395935 -3.36204529 35.58956909 C-4.88612829 40.77225659 -4.88612829 40.77225659 -6 43 C-0.72 43 4.56 43 10 43 C10.66 39.7 11.32 36.4 12 33 C13.98 33.33 15.96 33.66 18 34 C17.11570969 41.57963127 17.11570969 41.57963127 16.49780273 43.82446289 C15.94591359 46.23637274 15.8065988 48.47706931 15.71875 50.94921875 C15.68136719 51.87927734 15.64398438 52.80933594 15.60546875 53.76757812 C15.53473351 55.72589623 15.46442603 57.68422984 15.39453125 59.64257812 C15.35714844 60.56876953 15.31976563 61.49496094 15.28125 62.44921875 C15.23581055 63.72285278 15.23581055 63.72285278 15.18945312 65.0222168 C15 67 15 67 14 68 C12.58429877 68.08651611 11.164405 68.10704904 9.74609375 68.09765625 C8.89208984 68.09443359 8.03808594 68.09121094 7.15820312 68.08789062 C6.26037109 68.07951172 5.36253906 68.07113281 4.4375 68.0625 C3.53580078 68.05798828 2.63410156 68.05347656 1.70507812 68.04882812 C-0.53001314 68.03700225 -2.76497437 68.0205222 -5 68 C-6.7526292 63.50558648 -8.32787175 59.26101798 -9.1875 54.5 C-9.34605469 53.6440625 -9.50460938 52.788125 -9.66796875 51.90625 C-9.77753906 51.2771875 -9.88710938 50.648125 -10 50 C-11.32 49.67 -12.64 49.34 -14 49 C-12.45418701 39.96578756 -9.84272195 31.30911614 -7.2043457 22.54736328 C-6.43137531 19.97965455 -5.66536554 17.40994461 -4.90039062 14.83984375 C-4.41185804 13.20560963 -3.92293992 11.57149069 -3.43359375 9.9375 C-3.20441757 9.16986328 -2.97524139 8.40222656 -2.73912048 7.61132812 C-1.11661473 2.23322946 -1.11661473 2.23322946 0 0 Z M-3 49 C-2.87625 50.4025 -2.7525 51.805 -2.625 53.25 C-2.55539063 54.03890625 -2.48578125 54.8278125 -2.4140625 55.640625 C-1.98492887 58.085877 -1.21399362 59.84836903 0 62 C2.64 62 5.28 62 8 62 C9.53166168 57.91556885 8.63081652 54.20544343 8 50 C4.37 49.67 0.74 49.34 -3 49 Z " fill="#FDFDFD" transform="translate(34,145)"/>
<path d="M0 0 C2.61152506 2.61152506 2.23779913 4.43881854 2.25224304 7.99464417 C2.24505753 8.81238815 2.23787201 9.63013214 2.23046875 10.47265625 C2.23001053 11.31090439 2.22955231 12.14915253 2.2290802 13.01280212 C2.22605724 14.78564875 2.21816963 16.55849271 2.20581055 18.33129883 C2.18755065 21.05494522 2.18530085 23.77825192 2.18554688 26.50195312 C2.18063192 28.22135713 2.1748037 29.94075881 2.16796875 31.66015625 C2.16685593 32.47992447 2.1657431 33.29969269 2.16459656 34.14430237 C2.11604801 39.88395199 2.11604801 39.88395199 1 41 C-1.43660446 41.10082764 -3.84424701 41.13972603 -6.28125 41.1328125 C-7.00993286 41.13376923 -7.73861572 41.13472595 -8.48937988 41.13571167 C-10.0327971 41.13639335 -11.57621717 41.13453988 -13.11962891 41.13037109 C-15.489974 41.12502262 -17.86012959 41.13031642 -20.23046875 41.13671875 C-21.72656292 41.13605797 -23.22265697 41.1347768 -24.71875 41.1328125 C-25.78905457 41.13584885 -25.78905457 41.13584885 -26.88098145 41.13894653 C-31.88504809 41.11495191 -31.88504809 41.11495191 -33 40 C-33.34375 37.5234375 -33.34375 37.5234375 -33.5 34.375 C-33.5721875 33.35148437 -33.644375 32.32796875 -33.71875 31.2734375 C-32.90865375 27.58397741 -32.26945325 27.12484526 -29.52734375 24.75390625 C-26.43362964 21.91845957 -25.46878978 20.13358117 -25.09765625 15.94140625 C-25.05169682 14.14898833 -25.04055699 12.35537277 -25.0625 10.5625 C-25.04638672 9.64017578 -25.03027344 8.71785156 -25.01367188 7.76757812 C-24.97858286 5.5101846 -24.97475814 3.25738893 -25 1 C-23.00045254 0.95745644 -20.99958364 0.95919217 -19 1 C-16.24220129 3.75779871 -17.44992908 11.28434859 -17.39086914 14.98193359 C-17.46202396 19.34286739 -17.56053677 22.22995839 -19.75 26.06640625 C-21.73899517 27.93819278 -23.77582593 29.42944157 -26 31 C-26.495 32.485 -26.495 32.485 -27 34 C-19.74 34 -12.48 34 -5 34 C-5 23.44 -5 12.88 -5 2 C-3.35 1.34 -1.7 0.68 0 0 Z " fill="#FCFCFC" transform="translate(85,216)"/>
<path d="M0 0 C0 10.89 0 21.78 0 33 C7.26 33 14.52 33 22 33 C19.47745104 28.11351685 19.47745104 28.11351685 16.33203125 25.92578125 C12.69412889 21.3616458 13.46323351 16.83556537 13.6875 11.1875 C13.71005859 10.11306641 13.73261719 9.03863281 13.75585938 7.93164062 C13.81464402 5.2863315 13.89676043 2.64388587 14 0 C15.98 0 17.96 0 20 0 C19.98839844 0.56396484 19.97679688 1.12792969 19.96484375 1.70898438 C19.37326354 12.72077507 19.37326354 12.72077507 22.84765625 22.72265625 C24.2853654 23.91694374 25.75220005 25.07731182 27.25 26.1953125 C29.69146424 28.7130725 29.5625 30.48978865 29.5625 33.9375 C29.25147059 38.74852941 29.25147059 38.74852941 28 40 C25.56339554 40.10082764 23.15575299 40.13972603 20.71875 40.1328125 C19.99006714 40.13376923 19.26138428 40.13472595 18.51062012 40.13571167 C16.9672029 40.13639335 15.42378283 40.13453988 13.88037109 40.13037109 C11.510026 40.12502262 9.13987041 40.13031642 6.76953125 40.13671875 C5.27343708 40.13605797 3.77734303 40.1347768 2.28125 40.1328125 C1.21094543 40.13584885 1.21094543 40.13584885 0.11901855 40.13894653 C-4.88504809 40.11495191 -4.88504809 40.11495191 -6 39 C-6.08865208 36.1156618 -6.11521296 33.25537842 -6.09765625 30.37109375 C-6.0962413 29.50686295 -6.09482635 28.64263214 -6.09336853 27.75221252 C-6.08775239 24.98060708 -6.07519719 22.2090812 -6.0625 19.4375 C-6.05748708 17.5631522 -6.05292381 15.68880315 -6.04882812 13.81445312 C-6.03777772 9.20960456 -6.0205023 4.60481579 -6 0 C-2.25 -1.125 -2.25 -1.125 0 0 Z " fill="#FDFDFD" transform="translate(99,217)"/>
<path d="M0 0 C6.70105104 0.85830148 10.27477384 6.47182116 14.32421875 11.42578125 C17.24773417 9.25402694 19.72721046 7.05992095 22.01171875 4.23828125 C24.57937656 1.11545419 25.17753578 0.58214711 29.07421875 0.05078125 C33.3440706 0.54345646 35.43251574 2.4675173 38.32421875 5.42578125 C38.90042969 6.00328125 39.47664063 6.58078125 40.0703125 7.17578125 C43.28852117 10.62439285 43.28852117 10.62439285 44.32421875 12.42578125 C44.171875 14.515625 44.171875 14.515625 43.32421875 16.42578125 C42.33421875 17.08578125 41.34421875 17.74578125 40.32421875 18.42578125 C37.02421875 14.79578125 33.72421875 11.16578125 30.32421875 7.42578125 C26.89820182 8.56778689 26.07900224 9.6288618 23.82421875 12.36328125 C21.07376797 15.68674261 18.99585259 18.03702919 14.63671875 19.05078125 C9.42359497 18.06717299 6.66944756 14.36621969 3.32421875 10.42578125 C2.66421875 9.43578125 2.00421875 8.44578125 1.32421875 7.42578125 C-2.34364518 8.92927502 -4.36488518 11.06306917 -6.92578125 14.05078125 C-7.6321875 14.86804688 -8.33859375 15.6853125 -9.06640625 16.52734375 C-9.5975 17.15382813 -10.12859375 17.7803125 -10.67578125 18.42578125 C-11.99578125 17.43578125 -13.31578125 16.44578125 -14.67578125 15.42578125 C-14.13446043 11.21550823 -11.78577061 8.79912257 -9.05078125 5.67578125 C-7.79394531 4.19851562 -7.79394531 4.19851562 -6.51171875 2.69140625 C-3.67578125 0.42578125 -3.67578125 0.42578125 0 0 Z " fill="#FBFBFB" transform="translate(121.67578125,55.57421875)"/>
<path d="M0 0 C1.27617188 0.02320312 2.55234375 0.04640625 3.8671875 0.0703125 C5.78917969 0.09738281 5.78917969 0.09738281 7.75 0.125 C9.23113281 0.15980469 9.23113281 0.15980469 10.7421875 0.1953125 C12.1663781 3.04369371 11.91214258 5.52319158 11.9296875 8.6953125 C11.94386719 9.860625 11.95804688 11.0259375 11.97265625 12.2265625 C11.7421875 15.1953125 11.7421875 15.1953125 9.7421875 17.1953125 C6.484375 17.390625 6.484375 17.390625 2.6171875 17.3203125 C0.69519531 17.29324219 0.69519531 17.29324219 -1.265625 17.265625 C-2.74675781 17.23082031 -2.74675781 17.23082031 -4.2578125 17.1953125 C-5.33246981 13.97134058 -5.42473053 11.52060464 -5.4453125 8.1328125 C-5.45949219 7.06933594 -5.47367187 6.00585938 -5.48828125 4.91015625 C-5.13665097 0.76807078 -4.08010256 0.24461047 0 0 Z " fill="#F8F8F8" transform="translate(101.2578125,99.8046875)"/>
<path d="M0 0 C1.49341703 2.98683407 1.13175178 5.74399774 1.125 9.0625 C1.12886719 10.96708984 1.12886719 10.96708984 1.1328125 12.91015625 C1 16 1 16 0 17 C-2.30901696 17.15179378 -4.62367069 17.22181122 -6.9375 17.25 C-8.20464844 17.27578125 -9.47179687 17.3015625 -10.77734375 17.328125 C-11.84082031 17.21984375 -12.90429688 17.1115625 -14 17 C-16.17330391 13.74004414 -16.24921459 12.77020034 -16.1875 9 C-16.18105469 8.13375 -16.17460938 7.2675 -16.16796875 6.375 C-16 4 -16 4 -15 1 C-9.91913204 0.15318867 -5.15171623 -0.09038099 0 0 Z " fill="#F9F9F9" transform="translate(84,100)"/>
<path d="M0 0 C0 20.13 0 40.26 0 61 C-0.66 61 -1.32 61 -2 61 C-2 41.2 -2 21.4 -2 1 C-16.52 1 -31.04 1 -46 1 C-46 0.67 -46 0.34 -46 0 C-39.9312332 -0.16755313 -33.86233729 -0.32811943 -27.79321289 -0.48217773 C-25.72805796 -0.53558831 -23.66295172 -0.59091695 -21.59790039 -0.64819336 C-18.63177998 -0.73013039 -15.66555359 -0.80519629 -12.69921875 -0.87890625 C-11.7741301 -0.90594131 -10.84904144 -0.93297638 -9.8959198 -0.96083069 C-9.03525406 -0.98092697 -8.17458832 -1.00102325 -7.2878418 -1.02172852 C-6.15199898 -1.05170677 -6.15199898 -1.05170677 -4.99320984 -1.08229065 C-3 -1 -3 -1 0 0 Z " fill="#CCCCCC" transform="translate(179,34)"/>
<path d="M0 0 C0.66 0 1.32 0 2 0 C2.02687279 1.81242052 2.04633715 3.62495233 2.0625 5.4375 C2.07410156 6.44683594 2.08570313 7.45617187 2.09765625 8.49609375 C2 11 2 11 1 12 C-1.3756852 12.0883967 -3.72208674 12.11530305 -6.09765625 12.09765625 C-7.16094398 12.09553383 -7.16094398 12.09553383 -8.24571228 12.09336853 C-10.51801712 12.08775443 -12.79022475 12.07519963 -15.0625 12.0625 C-16.59960796 12.05748681 -18.13671745 12.05292359 -19.67382812 12.04882812 C-23.44925642 12.03778042 -27.22461171 12.02050641 -31 12 C-30.67 11.34 -30.34 10.68 -30 10 C-20.1 10 -10.2 10 0 10 C0 6.7 0 3.4 0 0 Z " fill="#EAEAEA" transform="translate(126,245)"/>
<path d="M0 0 C0.66 0 1.32 0 2 0 C0.515 6.435 0.515 6.435 -1 13 C-0.01 13 0.98 13 2 13 C2.69809445 15.26805795 3.38371017 17.53866607 4.0625 19.8125 C4.26166016 20.45509766 4.46082031 21.09769531 4.66601562 21.75976562 C6.11328125 26.66015625 6.11328125 26.66015625 5 30 C3.24265549 25.02638346 1.67415387 20.2584002 1 15 C-0.32 14.67 -1.64 14.34 -3 14 C-2.68872484 12.41642541 -2.37592711 10.83315007 -2.0625 9.25 C-1.80146484 7.92742187 -1.80146484 7.92742187 -1.53515625 6.578125 C-1.07631512 4.36764947 -0.56663926 2.18487932 0 0 Z " fill="#EBEBEA" transform="translate(23,180)"/>
<path d="M0 0 C3.96 0 7.92 0 12 0 C12 4.95 12 9.9 12 15 C11.34 15 10.68 15 10 15 C10 10.71 10 6.42 10 2 C6.7 2 3.4 2 0 2 C0 1.34 0 0.68 0 0 Z " fill="#E9E9E8" transform="translate(32,193)"/>
<path d="M0 0 C3.14043427 0.80050285 4.86606897 1.58392621 7.1875 3.8125 C6.8575 4.4725 6.5275 5.1325 6.1875 5.8125 C5.630625 5.296875 5.07375 4.78125 4.5 4.25 C2.31334287 2.59047553 2.31334287 2.59047553 -0.125 2.90625 C-3.73914116 4.12497202 -5.51243046 6.12309342 -8.125 8.875 C-9.00800781 9.79410156 -9.89101562 10.71320313 -10.80078125 11.66015625 C-11.46464844 12.37042969 -12.12851563 13.08070312 -12.8125 13.8125 C-12.8125 8.93214269 -9.46834149 6.39981488 -6.265625 2.9453125 C-3.8125 0.8125 -3.8125 0.8125 0 0 Z " fill="#F1F1F1" transform="translate(121.8125,55.1875)"/>
<path d="M0 0 C4.95 0 9.9 0 15 0 C14.67 0.66 14.34 1.32 14 2 C11.27734375 2.4140625 11.27734375 2.4140625 7.9375 2.625 C6.83277344 2.69976562 5.72804687 2.77453125 4.58984375 2.8515625 C3.73519531 2.90054688 2.88054687 2.94953125 2 3 C1.67 6.63 1.34 10.26 1 14 C0.67 14 0.34 14 0 14 C0 9.38 0 4.76 0 0 Z " fill="#DDDDDD" transform="translate(135,193)"/>
</svg>
