<?xml version="1.0" encoding="UTF-8"?>
<svg version="1.1" xmlns="http://www.w3.org/2000/svg" width="192" height="288">
<path d="M0 0 C9.10791645 5.08904064 15.55134681 9.25234107 18.921875 19.390625 C19.20450195 20.14190674 19.48712891 20.89318848 19.77832031 21.66723633 C20.60962612 23.87710029 21.39624266 26.09818202 22.171875 28.328125 C22.5740625 29.45831055 22.5740625 29.45831055 22.984375 30.61132812 C24.921875 36.1322146 24.921875 36.1322146 24.921875 38.390625 C26.241875 38.390625 27.561875 38.390625 28.921875 38.390625 C28.921875 44.990625 28.921875 51.590625 28.921875 58.390625 C26.941875 58.390625 24.961875 58.390625 22.921875 58.390625 C22.68356712 59.21716835 22.68356712 59.21716835 22.44044495 60.06040955 C21.18343947 64.14290642 19.81983872 67.78672162 17.56225586 71.42407227 C7.33503985 88.42841615 7.59959702 107.2836025 6.62872314 126.55682373 C6.39146385 131.11190118 6.10985032 135.66416579 5.83007812 140.21679688 C5.50122066 145.60741673 5.17606893 150.99809204 4.87295532 156.39022827 C3.85513614 174.4142875 2.42726805 192.40155484 0.921875 210.390625 C-0.19832031 210.64972656 -1.31851563 210.90882813 -2.47265625 211.17578125 C-3.66246094 211.57667969 -4.85226563 211.97757813 -6.078125 212.390625 C-7.82382839 215.79726008 -7.82382839 215.79726008 -9.078125 219.390625 C-11.81353656 222.12603656 -14.22667468 223.12191916 -18.078125 223.390625 C-22.17329869 222.67217348 -24.42957405 222.03917595 -27.390625 219.078125 C-29.078125 216.390625 -29.078125 216.390625 -29.953125 213.640625 C-30.324375 212.898125 -30.695625 212.155625 -31.078125 211.390625 C-34.11115764 210.71316532 -34.11115764 210.71316532 -37.078125 210.390625 C-38.10464829 196.6986724 -39.13050288 183.00666988 -40.15552425 169.31460476 C-40.6315984 162.95556183 -41.10789534 156.59653577 -41.5847168 150.23754883 C-42.0456134 144.09082557 -42.50590472 137.94405725 -42.9657917 131.79725838 C-43.14058832 129.46233599 -43.31559616 127.1274294 -43.49082756 124.7925396 C-43.65797616 122.56500957 -43.82476876 120.3374528 -43.99117374 118.1098671 C-44.14802377 116.01410401 -44.30607149 113.91843014 -44.46543789 111.8228569 C-44.79314197 107.47024699 -45.10531804 103.12094681 -45.32034302 98.76118469 C-45.38808929 97.44555038 -45.45583557 96.12991608 -45.52563477 94.77441406 C-45.57059586 93.68799622 -45.61555695 92.60157837 -45.66188049 91.48223877 C-46.48033145 85.4032775 -49.31744613 80.11316505 -52.078125 74.703125 C-53.18472149 72.45041072 -54.28899547 70.19655365 -55.390625 67.94140625 C-55.88175781 66.96856689 -56.37289062 65.99572754 -56.87890625 64.9934082 C-57.90549908 62.76529212 -58.59717133 60.78513772 -59.078125 58.390625 C-61.058125 58.390625 -63.038125 58.390625 -65.078125 58.390625 C-65.078125 51.790625 -65.078125 45.190625 -65.078125 38.390625 C-63.758125 38.390625 -62.438125 38.390625 -61.078125 38.390625 C-60.93117188 37.86597656 -60.78421875 37.34132812 -60.6328125 36.80078125 C-59.81778024 33.9856411 -58.94463646 31.19037604 -58.078125 28.390625 C-57.88476562 27.71563965 -57.69140625 27.0406543 -57.4921875 26.34521484 C-53.13198514 11.23590249 -53.13198514 11.23590249 -48.015625 7.828125 C-47.231875 7.44269531 -46.448125 7.05726562 -45.640625 6.66015625 C-42.94610712 5.44017475 -42.94610712 5.44017475 -40.453125 3.27734375 C-28.94107441 -5.58632286 -12.9888938 -6.24514803 0 0 Z M-46.8828125 16.7109375 C-48.54499805 20.43727505 -49.94048236 24.22048754 -51.265625 28.078125 C-51.53826172 28.84962891 -51.81089844 29.62113281 -52.09179688 30.41601562 C-53.55098004 34.30989793 -53.55098004 34.30989793 -54.078125 38.390625 C-30.318125 38.390625 -6.558125 38.390625 17.921875 38.390625 C16.9791526 33.67701299 15.71296052 29.36187406 14.171875 24.828125 C13.93210937 24.07337891 13.69234375 23.31863281 13.4453125 22.54101562 C11.80174261 17.73315008 10.30225317 15.24574919 5.921875 12.390625 C4.88675781 11.61203125 3.85164063 10.8334375 2.78515625 10.03125 C-5.89262516 3.9956036 -14.06813758 0.97229376 -24.71386719 2.74658203 C-32.6588798 4.91086779 -41.78691542 10.15906983 -46.8828125 16.7109375 Z M-59.078125 44.390625 C-59.078125 47.030625 -59.078125 49.670625 -59.078125 52.390625 C-48.53431188 52.41374843 -37.99050475 52.43154009 -27.44667149 52.44243717 C-22.55127126 52.447666 -17.65588832 52.45476364 -12.76049805 52.46606445 C-8.04024522 52.47689334 -3.32000908 52.48290184 1.4002552 52.48550224 C3.20526454 52.48735649 5.01027292 52.49097709 6.81527519 52.49635506 C9.33447144 52.50356552 11.8535979 52.50461594 14.37280273 52.50415039 C15.50352455 52.5095433 15.50352455 52.5095433 16.65708923 52.51504517 C20.07741731 52.81622036 20.07741731 52.81622036 22.921875 51.390625 C23.08854167 48.390625 23.08854167 48.390625 22.921875 45.390625 C21.19046007 43.65921007 18.96437456 44.27084921 16.65708923 44.26620483 C15.90327469 44.26980011 15.14946014 44.27339539 14.37280273 44.27709961 C13.58261749 44.27695358 12.79243225 44.27680756 11.978302 44.2766571 C9.35399678 44.27735643 6.72976164 44.28514973 4.10546875 44.29296875 C2.29085835 44.29483286 0.47624744 44.2962568 -1.33836365 44.29725647 C-6.1240273 44.30108221 -10.9096608 44.31091296 -15.6953125 44.32196045 C-20.57486564 44.33217337 -25.45442364 44.33675383 -30.33398438 44.34179688 C-39.91537786 44.35253518 -49.49674893 44.36961227 -59.078125 44.390625 Z M-52.078125 58.390625 C-50.35102352 63.57192943 -48.39170775 68.28676165 -46.078125 73.203125 C-45.72234375 73.97849609 -45.3665625 74.75386719 -45 75.55273438 C-44.48179688 76.6577832 -44.48179688 76.6577832 -43.953125 77.78515625 C-43.64117187 78.45393799 -43.32921875 79.12271973 -43.0078125 79.81176758 C-42.16216101 81.5751974 -42.16216101 81.5751974 -40.078125 82.390625 C-38.67479699 82.49486297 -37.26675759 82.53925016 -35.85961914 82.55175781 C-34.98854019 82.56136536 -34.11746124 82.5709729 -33.21998596 82.58087158 C-32.27727341 82.58512146 -31.33456085 82.58937134 -30.36328125 82.59375 C-29.39660019 82.59945007 -28.42991913 82.60515015 -27.4339447 82.61102295 C-25.38704526 82.62047836 -23.34013055 82.62700907 -21.29321289 82.63085938 C-18.15679512 82.64057491 -15.02102978 82.67159733 -11.88476562 82.703125 C-9.8984414 82.70965392 -7.91211248 82.71490483 -5.92578125 82.71875 C-4.98509293 82.7310968 -4.0444046 82.7434436 -3.07521057 82.75616455 C-2.20097946 82.75316345 -1.32674835 82.75016235 -0.42602539 82.74707031 C0.72741615 82.75253876 0.72741615 82.75253876 1.90415955 82.75811768 C4.46510768 82.29168437 5.30821746 81.39069443 6.921875 79.390625 C8.13700331 77.20765992 8.13700331 77.20765992 9.18359375 74.7578125 C9.77817383 73.42556641 9.77817383 73.42556641 10.38476562 72.06640625 C10.78888672 71.14214844 11.19300781 70.21789062 11.609375 69.265625 C12.02509766 68.33363281 12.44082031 67.40164062 12.86914062 66.44140625 C14.92725219 62.5541154 14.92725219 62.5541154 15.921875 58.390625 C-6.518125 58.390625 -28.958125 58.390625 -52.078125 58.390625 Z M-39.078125 88.390625 C-39.078125 90.700625 -39.078125 93.010625 -39.078125 95.390625 C-25.218125 95.390625 -11.358125 95.390625 2.921875 95.390625 C2.921875 93.080625 2.921875 90.770625 2.921875 88.390625 C-10.938125 88.390625 -24.798125 88.390625 -39.078125 88.390625 Z M-38.078125 102.390625 C-37.33112651 121.32703684 -35.9174194 140.20454682 -34.49414062 159.09960938 C-34.14271105 163.76751087 -33.79820301 168.43589651 -33.45535278 173.10443497 C-33.18915463 176.71616415 -32.91877601 180.32757109 -32.64715576 183.93889618 C-32.51812228 185.66285193 -32.39055139 187.38691779 -32.26446533 189.11109161 C-32.08952074 191.49661324 -31.90881694 193.88162889 -31.7265625 196.26660156 C-31.67562439 196.97807343 -31.62468628 197.68954529 -31.57220459 198.4225769 C-31.56644501 201.69226253 -31.56644501 201.69226253 -30.078125 204.390625 C-28.30953307 204.49008953 -26.53701049 204.52142717 -24.765625 204.5234375 C-23.69054687 204.52472656 -22.61546875 204.52601563 -21.5078125 204.52734375 C-20.37601563 204.52347656 -19.24421875 204.51960938 -18.078125 204.515625 C-16.94632813 204.51949219 -15.81453125 204.52335937 -14.6484375 204.52734375 C-13.57335937 204.52605469 -12.49828125 204.52476562 -11.390625 204.5234375 C-10.39675781 204.52230957 -9.40289062 204.52118164 -8.37890625 204.52001953 C-6.11437274 204.6489683 -6.11437274 204.6489683 -5.078125 203.390625 C-4.7729931 200.58249967 -4.52877358 197.79057793 -4.32202148 194.97460938 C-4.21938995 193.65008255 -4.21938995 193.65008255 -4.11468506 192.29879761 C-3.88829449 189.36098655 -3.66861352 186.42271619 -3.44921875 183.484375 C-3.29400941 181.44467906 -3.13849286 179.40500647 -2.98268127 177.36535645 C-2.65619292 173.07809571 -2.33291905 168.79060804 -2.01196289 164.50292969 C-1.60156839 159.02283691 -1.18414264 153.5433084 -0.76437283 148.0639267 C-0.44181035 143.84492124 -0.12261766 139.62566605 0.19553947 135.40632629 C0.34810163 133.38736408 0.50159978 131.36847237 0.6560688 129.34965515 C0.87244736 126.51394235 1.08438157 123.67793029 1.29516602 120.84179688 C1.35905014 120.01545746 1.42293427 119.18911804 1.48875427 118.33773804 C1.54620819 117.55270905 1.60366211 116.76768005 1.66285706 115.9588623 C1.71317864 115.29001762 1.76350023 114.62117294 1.81534672 113.93206024 C1.97647128 110.0881267 1.921875 106.23793395 1.921875 102.390625 C-11.278125 102.390625 -24.478125 102.390625 -38.078125 102.390625 Z M-23.078125 211.390625 C-21.5791446 215.51236808 -21.5791446 215.51236808 -18.640625 216.328125 C-16.0512825 216.65028216 -16.0512825 216.65028216 -14.265625 215.078125 C-12.88629386 213.46193065 -12.88629386 213.46193065 -13.078125 211.390625 C-16.378125 211.390625 -19.678125 211.390625 -23.078125 211.390625 Z " fill="#FEFEFE" transform="translate(114.078125,36.609375)"/>
</svg>
