<?xml version="1.0" encoding="UTF-8"?>
<svg version="1.1" xmlns="http://www.w3.org/2000/svg" width="192" height="288">
<path d="M0 0 C1.48370087 -0.05775856 1.48370087 -0.05775856 2.99737549 -0.11668396 C4.063974 -0.13884476 5.13057251 -0.16100555 6.22949219 -0.18383789 C7.34007996 -0.20805313 8.45066772 -0.23226837 9.59490967 -0.25721741 C11.95180264 -0.29871898 14.3088754 -0.3308951 16.66601562 -0.35449219 C19.05197806 -0.38885857 21.43772161 -0.449913 23.82226562 -0.5390625 C38.51547582 -1.0880643 49.12570541 -0.62395268 60.36914062 9.54833984 C62.83520957 12.31643653 63.49948115 13.09955164 64.02636719 16.53100586 C63.46777344 18.67163086 63.46777344 18.67163086 62.58886719 20.78100586 C62.30140625 21.48741211 62.01394531 22.19381836 61.71777344 22.92163086 C61.48960937 23.45272461 61.26144531 23.98381836 61.02636719 24.53100586 C62.08726562 25.00280273 63.14816406 25.47459961 64.24121094 25.96069336 C69.06135455 28.72860038 70.58228841 32.65319587 72.58886719 37.65600586 C72.95560547 38.46038086 73.32234375 39.26475586 73.70019531 40.09350586 C76.36626876 46.50026969 75.99874122 50.96651581 74.02636719 57.53100586 C73.67316406 58.79170898 73.31996094 60.05241211 72.95605469 61.35131836 C72.60800781 62.44186523 72.25996094 63.53241211 71.90136719 64.65600586 C71.3715625 66.33049805 71.3715625 66.33049805 70.83105469 68.03881836 C70.56550781 68.86124023 70.29996094 69.68366211 70.02636719 70.53100586 C70.79078125 70.63670898 71.55519531 70.74241211 72.34277344 70.85131836 C76.02582908 71.78414468 77.18605221 73.21124304 79.20996094 76.32006836 C80.86829902 80.81107007 79.23979042 85.07377794 78.02636719 89.53100586 C77.75953125 90.93479492 77.75953125 90.93479492 77.48730469 92.36694336 C75.99958041 99.4485109 73.0063019 105.21662343 67.02636719 109.53100586 C63.26074219 110.27319336 63.26074219 110.27319336 60.02636719 110.53100586 C59.77242187 111.55581055 59.51847656 112.58061523 59.25683594 113.63647461 C58.90960122 114.99725932 58.56192135 116.35793051 58.21386719 117.71850586 C58.04822266 118.39204102 57.88257813 119.06557617 57.71191406 119.75952148 C56.9240112 122.80707031 56.10805158 125.39704346 54.46386719 128.09350586 C52.65210625 131.16562224 52.30141627 133.82101673 51.83886719 137.34350586 C51.6803125 138.50495117 51.52175781 139.66639648 51.35839844 140.86303711 C51.24882813 141.7434668 51.13925781 142.62389648 51.02636719 143.53100586 C53.33636719 143.53100586 55.64636719 143.53100586 58.02636719 143.53100586 C58.15785156 144.55838867 58.28933594 145.58577148 58.42480469 146.64428711 C59.65898806 152.69083457 61.29297578 157.71388964 66.62060547 161.25561523 C73.15565917 164.54031495 80.02198929 166.97631953 86.91357422 169.3996582 C90.8687129 170.83715723 94.62837728 172.5512253 98.40136719 174.40600586 C104.52856998 177.3253964 110.73419536 179.98835914 117.02636719 182.53100586 C116.69636719 183.85100586 116.36636719 185.17100586 116.02636719 186.53100586 C107.20985821 182.96216749 98.46105998 179.33106316 89.85058594 175.28491211 C80.99739855 171.1763746 71.98586643 167.40048073 63.02636719 163.53100586 C62.91317139 164.24184326 62.79997559 164.95268066 62.68334961 165.68505859 C61.97494762 168.75374755 60.89083633 171.23533324 59.51464844 174.06616211 C58.74797852 175.65267578 58.74797852 175.65267578 57.96582031 177.27124023 C57.42892578 178.36758789 56.89203125 179.46393555 56.33886719 180.59350586 C55.82130859 181.6627832 55.30375 182.73206055 54.77050781 183.83374023 C51.24724317 191.09526326 47.65044909 198.31935061 44.02636719 205.53100586 C36.98212567 201.16179277 30.62802574 196.66562918 24.02636719 191.53100586 C23.69636719 211.00100586 23.36636719 230.47100586 23.02636719 250.53100586 C21.70636719 250.53100586 20.38636719 250.53100586 19.02636719 250.53100586 C19.02636719 231.06100586 19.02636719 211.59100586 19.02636719 191.53100586 C12.42636719 196.15100586 5.82636719 200.77100586 -0.97363281 205.53100586 C-4.15672793 202.34791074 -5.49282099 199.40550355 -7.16113281 195.34350586 C-9.94160018 188.75285247 -12.97920737 182.35590669 -16.30834961 176.02441406 C-18.43681988 171.89925903 -19.83981688 168.00296008 -20.97363281 163.53100586 C-24.07796445 164.9264725 -27.18205777 166.32246857 -30.28613281 167.71850586 C-31.20442871 168.13124756 -32.12272461 168.54398926 -33.06884766 168.96923828 C-37.7537726 171.07633569 -42.43208057 173.19594636 -47.09863281 175.34350586 C-51.15389923 177.19427387 -55.26025964 178.86103302 -59.41113281 180.48413086 C-63.24329024 182.04970737 -66.98011021 183.81246963 -70.72363281 185.57788086 C-72.97363281 186.53100586 -72.97363281 186.53100586 -74.97363281 186.53100586 C-74.97363281 185.21100586 -74.97363281 183.89100586 -74.97363281 182.53100586 C-74.18529053 182.18956543 -73.39694824 181.848125 -72.5847168 181.49633789 C-70.91904663 180.77486572 -70.91904663 180.77486572 -69.21972656 180.03881836 C-68.31360374 179.64721275 -68.31360374 179.64721275 -67.38917542 179.24769592 C-64.02374354 177.79228356 -60.66248212 176.32825485 -57.30761719 174.84863281 C-50.94879876 172.0535586 -44.61555576 169.34481795 -38.07128906 167.00366211 C-26.99528132 163.40788801 -26.99528132 163.40788801 -19.22753906 155.35522461 C-17.57313089 151.49140019 -16.6366028 147.67328348 -15.97363281 143.53100586 C-13.66363281 143.53100586 -11.35363281 143.53100586 -8.97363281 143.53100586 C-9.30363281 138.91100586 -9.63363281 134.29100586 -9.97363281 129.53100586 C-10.63363281 129.53100586 -11.29363281 129.53100586 -11.97363281 129.53100586 C-14.35051547 123.25418953 -16.49071454 117.08056157 -17.97363281 110.53100586 C-18.96363281 110.36600586 -19.95363281 110.20100586 -20.97363281 110.03100586 C-26.5058799 108.29517934 -29.93077185 105.47251147 -32.97363281 100.53100586 C-35.999144 93.13776818 -39.18200198 84.07953959 -37.07910156 76.16381836 C-35.54297998 73.72935731 -34.38180285 72.10808187 -31.97363281 70.53100586 C-30.65363281 70.53100586 -29.33363281 70.53100586 -27.97363281 70.53100586 C-28.33457031 69.45463867 -28.69550781 68.37827148 -29.06738281 67.26928711 C-33.95232998 52.15343741 -33.28561523 39.88835292 -29.97363281 24.53100586 C-15.0312357 23.23096916 -4.39160757 25.80424887 8.96191406 32.59130859 C10.97428828 33.5073006 12.86898889 34.06918827 15.02636719 34.53100586 C14.26839844 33.48299805 14.26839844 33.48299805 13.49511719 32.41381836 C12.84542969 31.50374023 12.19574219 30.59366211 11.52636719 29.65600586 C10.87667969 28.75108398 10.22699219 27.84616211 9.55761719 26.91381836 C8.02636719 24.53100586 8.02636719 24.53100586 8.02636719 22.53100586 C6.16431641 22.22356445 6.16431641 22.22356445 4.26464844 21.90991211 C2.62271415 21.63782014 0.98078747 21.36568231 -0.66113281 21.09350586 C-1.47775391 20.95879883 -2.294375 20.8240918 -3.13574219 20.68530273 C-7.09662143 20.02782885 -11.03913953 19.33367116 -14.97363281 18.53100586 C-21.23912903 17.55877369 -23.82122802 18.77597563 -28.97363281 22.53100586 C-30.6544636 23.84643865 -32.32604441 25.17416835 -33.97363281 26.53100586 C-34.96363281 25.54100586 -35.95363281 24.55100586 -36.97363281 23.53100586 C-28.95250839 17.17362225 -20.75716137 11.25847351 -12.18847656 5.65991211 C-9.12003698 3.71833064 -9.12003698 3.71833064 -7.08355713 1.93113708 C-4.54637326 0.24747937 -3.02524641 0.10309265 0 0 Z M4.02636719 3.53100586 C6.94076442 5.09023124 9.77097839 6.1365093 12.94677734 7.04321289 C13.92103668 7.32335236 14.89529602 7.60349182 15.89907837 7.89212036 C17.46642227 8.33598587 17.46642227 8.33598587 19.06542969 8.78881836 C20.14263275 9.09673309 21.21983582 9.40464783 22.3296814 9.72189331 C24.60368573 10.37094076 26.87824689 11.01804003 29.15332031 11.66333008 C32.64630769 12.65457008 36.13722361 13.65285919 39.62792969 14.65209961 C41.83614359 15.28142506 44.04447304 15.91034529 46.25292969 16.53881836 C47.30187408 16.83877716 48.35081848 17.13873596 49.43154907 17.44778442 C50.39950409 17.72161957 51.36745911 17.99545471 52.36474609 18.27758789 C53.21871979 18.52026398 54.07269348 18.76294006 54.95254517 19.01296997 C56.9935059 19.61178948 56.9935059 19.61178948 59.02636719 19.53100586 C59.35636719 17.88100586 59.68636719 16.23100586 60.02636719 14.53100586 C57.90294061 12.8831072 55.77772228 11.23761798 53.65136719 9.59350586 C53.04808594 9.12493164 52.44480469 8.65635742 51.82324219 8.17358398 C46.13353018 3.77986194 42.94003179 3.39214253 35.86230469 3.43334961 C34.95509674 3.43476456 34.04788879 3.4361795 33.1131897 3.43763733 C30.20921563 3.4432449 27.30531804 3.45579868 24.40136719 3.46850586 C22.43522247 3.47351988 20.46907654 3.47808296 18.50292969 3.48217773 C13.67737929 3.4932168 8.85188621 3.51048651 4.02636719 3.53100586 Z M-11.09863281 9.03100586 C-11.66195312 9.46026367 -12.22527344 9.88952148 -12.80566406 10.33178711 C-14.19824991 11.39392886 -15.58636925 12.46192201 -16.97363281 13.53100586 C-13.7930204 15.65141413 -12.21753847 15.94897623 -8.50097656 16.42553711 C-6.90479492 16.65273438 -6.90479492 16.65273438 -5.27636719 16.88452148 C-3.03057961 17.19082449 -0.78311618 17.4850788 1.46582031 17.76733398 C2.52865234 17.92266602 3.59148437 18.07799805 4.68652344 18.23803711 C5.66242432 18.36670166 6.6383252 18.49536621 7.64379883 18.62792969 C10.02636719 19.53100586 10.02636719 19.53100586 11.24291992 21.9375 C11.50145752 22.79335693 11.75999512 23.64921387 12.02636719 24.53100586 C13.30998384 26.44038562 14.6467351 28.31480568 16.02636719 30.15600586 C18.08686174 32.92100774 20.11326617 35.66135434 22.02636719 38.53100586 C25.32636719 37.87100586 28.62636719 37.21100586 32.02636719 36.53100586 C30.41389438 32.50695868 28.73675158 28.5144011 27.02636719 24.53100586 C26.55714844 23.42112305 26.08792969 22.31124023 25.60449219 21.16772461 C25.12496094 20.11198242 24.64542969 19.05624023 24.15136719 17.96850586 C23.72082031 16.9978418 23.29027344 16.02717773 22.84667969 15.02709961 C20.44806807 11.7380163 17.77105785 10.73981027 14.02636719 9.53100586 C13.32447266 9.3016333 12.62257813 9.07226074 11.89941406 8.8359375 C9.67915171 8.13952439 7.45040977 7.48556622 5.21386719 6.84350586 C4.45138672 6.61856445 3.68890625 6.39362305 2.90332031 6.16186523 C-3.9584217 4.16583241 -5.59746359 4.78068254 -11.09863281 9.03100586 Z M25.02636719 13.53100586 C26.29173719 16.42925646 27.56463327 19.32414266 28.83886719 22.21850586 C29.19529297 23.03512695 29.55171875 23.85174805 29.91894531 24.69311523 C31.73448871 28.80723651 33.57985066 32.74160644 36.02636719 36.53100586 C46.05340488 36.01211428 46.05340488 36.01211428 54.20214844 31.10522461 C55.40568308 28.59519808 56.33878495 26.22572155 57.02636719 23.53100586 C54.44226168 20.94690035 52.29076694 20.5780582 48.77636719 19.58569336 C47.52855469 19.23120117 46.28074219 18.87670898 44.99511719 18.51147461 C44.01865234 18.23956299 44.01865234 18.23956299 43.02246094 17.9621582 C41.03209443 17.40760159 39.04471992 16.84322715 37.05761719 16.27709961 C31.13186076 14.35256352 31.13186076 14.35256352 25.02636719 13.53100586 Z M-27.97363281 28.53100586 C-28.20791059 30.54695168 -28.38699405 32.56947986 -28.53613281 34.59350586 C-28.61992188 35.69823242 -28.70371094 36.80295898 -28.79003906 37.94116211 C-28.850625 38.79581055 -28.91121094 39.65045898 -28.97363281 40.53100586 C-27.61814437 40.0976184 -26.26432005 39.65902591 -24.91113281 39.21850586 C-23.77998047 38.85305664 -23.77998047 38.85305664 -22.62597656 38.48022461 C-19.82339098 37.53692042 -19.82339098 37.53692042 -16.72363281 35.90600586 C-12.16375859 34.23405198 -8.79322394 34.38287921 -4.03613281 34.84350586 C-2.86727539 34.93535156 -2.86727539 34.93535156 -1.67480469 35.02905273 C0.22689878 35.18072234 2.12688579 35.35366395 4.02636719 35.53100586 C-1.8288885 30.85502883 -20.84823195 21.40560499 -27.97363281 28.53100586 Z M58.02636719 28.53100586 C56.54136719 31.99600586 56.54136719 31.99600586 55.02636719 35.53100586 C56.94097928 37.78278234 58.85796598 40.03246119 60.77636719 42.28100586 C61.58460938 43.23233398 61.58460938 43.23233398 62.40917969 44.20288086 C65.17301675 47.43859254 67.95464986 50.57857853 71.02636719 53.53100586 C72.46027017 47.41889425 71.45746858 43.83574423 68.83886719 38.21850586 C68.53400391 37.5037207 68.22914063 36.78893555 67.91503906 36.05249023 C66.61458907 33.15987504 65.58244519 30.93244122 62.97558594 29.05053711 C60.87944483 28.4022348 60.87944483 28.4022348 58.02636719 28.53100586 Z M-9.97363281 37.53100586 C-12.54599664 47.08446927 -14.48397322 56.73259057 -16.30053711 66.4519043 C-16.79088416 69.05624126 -17.2992901 71.65668903 -17.80761719 74.25756836 C-18.12058422 75.92142094 -18.43247336 77.58547672 -18.74316406 79.24975586 C-18.89719193 80.02266968 -19.05121979 80.7955835 -19.20991516 81.59191895 C-19.75614319 84.61031365 -20.17032488 86.94025691 -19.18847656 89.88916016 C-17.34747431 92.37725102 -15.28454951 94.59274783 -13.16113281 96.84350586 C-6.99049363 103.38755739 -2.64231419 108.85909192 -0.51660156 117.65209961 C-0.22756706 118.76924095 -0.22756706 118.76924095 0.06730652 119.90895081 C0.67189175 122.25881228 1.25566502 124.61325705 1.83886719 126.96850586 C2.24830239 128.57497598 2.65909746 130.18110015 3.07128906 131.78686523 C4.07465228 135.69735731 5.04962457 139.61339547 6.02636719 143.53100586 C15.92636719 143.53100586 25.82636719 143.53100586 36.02636719 143.53100586 C36.74824219 140.93225586 37.47011719 138.33350586 38.21386719 135.65600586 C38.58608398 134.34321655 38.58608398 134.34321655 38.96582031 133.00390625 C40.11973638 128.92515739 41.20102981 124.85304583 42.12011719 120.71459961 C44.8172889 109.02889514 48.8169006 102.72428097 58.07714844 94.76928711 C59.88893499 93.04913114 60.95065913 91.78891975 62.02636719 89.53100586 C61.98992836 86.93238314 61.98992836 86.93238314 61.38964844 84.03881836 C61.08486572 82.30607666 61.08486572 82.30607666 60.77392578 80.53833008 C60.65466736 79.89990173 60.53540894 79.26147339 60.41253662 78.60369873 C59.998264 76.38016718 59.60406879 74.1536463 59.21240234 71.92602539 C58.47192687 67.73742809 57.71017687 63.55304665 56.93969727 59.36987305 C56.45718557 56.74465292 55.98097105 54.11833507 55.50488281 51.49194336 C55.19862256 49.8226027 54.89199603 48.15332918 54.58496094 46.48413086 C54.37243935 45.30623993 54.37243935 45.30623993 54.15562439 44.10455322 C53.75202328 40.5170598 53.75202328 40.5170598 52.02636719 37.53100586 C44.37422151 37.68741764 36.81347173 38.77991512 29.29199219 40.12866211 C21.63164594 41.07246075 14.47725464 40.31095031 6.90136719 39.03100586 C1.20297313 38.07697609 -4.18889475 37.3428843 -9.97363281 37.53100586 Z M-25.66113281 42.46850586 C-26.469375 42.8487793 -27.27761719 43.22905273 -28.11035156 43.62084961 C-29.03267578 44.07137695 -29.03267578 44.07137695 -29.97363281 44.53100586 C-30.14040564 47.9475661 -30.14040564 47.9475661 -29.97363281 51.53100586 C-29.31363281 52.19100586 -28.65363281 52.85100586 -27.97363281 53.53100586 C-24.67363281 49.57100586 -21.37363281 45.61100586 -17.97363281 41.53100586 C-21.61524089 40.3171365 -22.3052875 40.86353636 -25.66113281 42.46850586 Z M-15.97363281 43.53100586 C-18.1029726 45.67821423 -20.13930908 47.84880392 -22.16113281 50.09350586 C-22.74572266 50.70258789 -23.3303125 51.31166992 -23.93261719 51.93920898 C-27.07571177 55.26761035 -27.07571177 55.26761035 -27.89013672 59.55786133 C-27.32232175 61.72268207 -27.32232175 61.72268207 -25.97363281 64.53100586 C-19.89191972 59.96972104 -16.99954395 56.8115155 -15.72363281 49.21850586 C-15.45863848 47.32471019 -15.20373597 45.42935687 -14.97363281 43.53100586 C-15.30363281 43.53100586 -15.63363281 43.53100586 -15.97363281 43.53100586 Z M57.02636719 43.53100586 C57.66367641 52.94724962 60.07849829 58.13250334 67.02636719 64.53100586 C69.53295284 62.0244202 70.01656279 61.08510133 70.02636719 57.53100586 C68.3866634 54.80823049 66.29856111 52.55063707 64.15136719 50.21850586 C63.58289063 49.57333008 63.01441406 48.9281543 62.42871094 48.26342773 C60.99544485 46.65483338 59.51464198 45.08884591 58.02636719 43.53100586 C57.69636719 43.53100586 57.36636719 43.53100586 57.02636719 43.53100586 Z M-22.72363281 65.84350586 C-24.19791368 67.42472522 -24.19791368 67.42472522 -24.97363281 69.53100586 C-24.51197186 73.39940628 -23.35082168 76.89729627 -21.97363281 80.53100586 C-21.64363281 80.53100586 -21.31363281 80.53100586 -20.97363281 80.53100586 C-20.31363281 74.92100586 -19.65363281 69.31100586 -18.97363281 63.53100586 C-20.44491756 63.4237392 -20.44491756 63.4237392 -22.72363281 65.84350586 Z M61.02636719 63.53100586 C61.52506123 68.89992465 62.04864251 74.22335759 63.02636719 79.53100586 C65.89603976 76.66133328 66.93610052 73.59300611 67.02636719 69.53100586 C65.6866955 66.91754798 64.22339877 65.57475617 62.02636719 63.53100586 C61.69636719 63.53100586 61.36636719 63.53100586 61.02636719 63.53100586 Z M-29.97363281 74.53100586 C-32.25069671 76.48197207 -32.25069671 76.48197207 -33.97363281 79.53100586 C-34.02900924 82.61843152 -33.30131472 85.42839704 -32.53613281 88.40600586 C-32.36919922 89.18331055 -32.20226563 89.96061523 -32.03027344 90.76147461 C-30.44576071 97.42426666 -27.83026928 102.62658155 -21.97363281 106.53100586 C-20.98363281 106.53100586 -19.99363281 106.53100586 -18.97363281 106.53100586 C-19.49321567 102.15166467 -20.03039023 97.84297195 -20.97363281 93.53100586 C-21.30363281 93.53100586 -21.63363281 93.53100586 -21.97363281 93.53100586 C-21.97363281 95.18100586 -21.97363281 96.83100586 -21.97363281 98.53100586 C-22.96363281 98.53100586 -23.95363281 98.53100586 -24.97363281 98.53100586 C-25.96363281 93.58100586 -26.95363281 88.63100586 -27.97363281 83.53100586 C-26.98363281 83.20100586 -25.99363281 82.87100586 -24.97363281 82.53100586 C-25.30363281 80.22100586 -25.63363281 77.91100586 -25.97363281 75.53100586 C-27.29363281 75.20100586 -28.61363281 74.87100586 -29.97363281 74.53100586 Z M69.02636719 74.53100586 C68.36636719 77.17100586 67.70636719 79.81100586 67.02636719 82.53100586 C68.01636719 82.86100586 69.00636719 83.19100586 70.02636719 83.53100586 C69.03636719 88.48100586 68.04636719 93.43100586 67.02636719 98.53100586 C66.03636719 98.53100586 65.04636719 98.53100586 64.02636719 98.53100586 C63.69636719 97.21100586 63.36636719 95.89100586 63.02636719 94.53100586 C62.69636719 95.76850586 62.36636719 97.00600586 62.02636719 98.28100586 C61.84074219 98.97709961 61.65511719 99.67319336 61.46386719 100.39038086 C60.8928737 102.82002447 60.8928737 102.82002447 61.02636719 106.53100586 C64.51473327 106.33167065 65.93597117 105.61037797 68.58886719 103.28100586 C72.30238571 98.44288867 73.55306301 92.34438834 75.02636719 86.53100586 C75.21585938 85.7975293 75.40535156 85.06405273 75.60058594 84.30834961 C76.23228714 81.21776845 76.02942481 79.53856946 74.83886719 76.59350586 C74.24074219 75.91288086 73.64261719 75.23225586 73.02636719 74.53100586 C71.70636719 74.53100586 70.38636719 74.53100586 69.02636719 74.53100586 Z M-24.97363281 82.53100586 C-23.97363281 86.53100586 -23.97363281 86.53100586 -23.97363281 86.53100586 Z M66.02636719 83.53100586 C67.02636719 87.53100586 67.02636719 87.53100586 67.02636719 87.53100586 Z M-23.97363281 86.53100586 C-22.97363281 89.53100586 -22.97363281 89.53100586 -22.97363281 89.53100586 Z M65.02636719 87.53100586 C66.02636719 90.53100586 66.02636719 90.53100586 66.02636719 90.53100586 Z M-22.97363281 90.53100586 C-21.97363281 93.53100586 -21.97363281 93.53100586 -21.97363281 93.53100586 Z M64.02636719 90.53100586 C65.02636719 94.53100586 65.02636719 94.53100586 65.02636719 94.53100586 Z M-16.97363281 97.53100586 C-15.97363281 99.53100586 -15.97363281 99.53100586 -15.97363281 99.53100586 Z M58.02636719 97.53100586 C56.57530886 99.18588161 55.14115875 100.85558865 53.71386719 102.53100586 C52.91335937 103.45913086 52.11285156 104.38725586 51.28808594 105.34350586 C46.9514505 111.45524077 45.27854845 118.69370472 43.27636719 125.84350586 C42.92638672 127.03943359 42.92638672 127.03943359 42.56933594 128.25952148 C42.3540625 129.02586914 42.13878906 129.7922168 41.91699219 130.58178711 C41.72137695 131.26926025 41.52576172 131.9567334 41.32421875 132.66503906 C40.84370001 134.75269303 40.84370001 134.75269303 42.02636719 137.53100586 C50.27572881 129.81690816 53.66219753 123.72970424 56.02636719 112.53100586 C56.62679906 110.30083032 57.23071874 108.07158953 57.83886719 105.84350586 C58.99189698 101.68033205 58.99189698 101.68033205 58.02636719 97.53100586 Z M-15.97363281 99.53100586 C-14.37558022 116.55789748 -14.37558022 116.55789748 -6.41113281 130.96850586 C-5.28751836 131.85169626 -4.14367467 132.71031299 -2.97363281 133.53100586 C-1.64029948 134.86433919 -0.30696615 136.19767253 1.02636719 137.53100586 C0.43061591 134.17313502 -0.2429344 130.86145231 -0.97363281 127.53100586 C-1.11897461 126.84490234 -1.26431641 126.15879883 -1.4140625 125.4519043 C-3.75735966 114.71763887 -6.18498165 106.75803719 -14.97363281 99.53100586 C-15.30363281 99.53100586 -15.63363281 99.53100586 -15.97363281 99.53100586 Z M-5.97363281 135.53100586 C-7.73467495 149.34973413 -7.73467495 149.34973413 -3.96972656 162.06225586 C-1.74098749 164.21077427 0.36290313 165.96146454 3.02636719 167.53100586 C4.35467334 163.5460874 3.25841122 162.13052038 1.58886719 158.34350586 C1.11578125 157.25682617 0.64269531 156.17014648 0.15527344 155.05053711 C-0.21726562 154.2190918 -0.58980469 153.38764648 -0.97363281 152.53100586 C2.02636719 153.53100586 2.02636719 153.53100586 3.05029297 155.52124023 C3.35435059 156.38040039 3.6584082 157.23956055 3.97167969 158.12475586 C4.32238525 159.06947754 4.67309082 160.01419922 5.03442383 160.98754883 C5.40301514 161.99188965 5.77160645 162.99623047 6.15136719 164.03100586 C9.44844104 172.62087766 12.40231623 179.01573496 20.02636719 184.53100586 C27.94534281 180.90093357 31.64921794 175.09130238 34.69433594 167.14428711 C35.05140625 166.1581543 35.40847656 165.17202148 35.77636719 164.15600586 C36.51112525 162.16529457 37.25543806 160.1780753 38.01074219 158.19506836 C38.48592285 156.88723389 38.48592285 156.88723389 38.97070312 155.55297852 C40.02636719 153.53100586 40.02636719 153.53100586 43.02636719 152.53100586 C42.65382812 153.44624023 42.28128906 154.36147461 41.89746094 155.30444336 C41.424375 156.49295898 40.95128906 157.68147461 40.46386719 158.90600586 C39.98820312 160.08936523 39.51253906 161.27272461 39.02246094 162.49194336 C37.67191747 165.40839588 37.67191747 165.40839588 39.02636719 167.53100586 C42.90209418 165.24709531 46.16502378 162.68790324 48.02636719 158.53100586 C49.22831167 150.96412511 48.57847695 143.14068278 48.02636719 135.53100586 C47.30449219 136.25288086 46.58261719 136.97475586 45.83886719 137.71850586 C44.44667969 139.11069336 44.44667969 139.11069336 43.02636719 140.53100586 C42.30175293 141.39886719 41.57713867 142.26672852 40.83056641 143.16088867 C37.35166793 146.1012636 34.71342405 146.28951944 30.34667969 146.26538086 C29.61569061 146.27490784 28.88470154 146.28443481 28.13156128 146.29425049 C26.59019654 146.30637605 25.04868276 146.30561492 23.50732422 146.29272461 C21.16333698 146.2810654 18.82659572 146.33324172 16.48339844 146.39038086 C5.6277427 146.48625578 5.6277427 146.48625578 1.50195312 144.02514648 C-0.24423345 142.28354789 -1.59082457 140.56516484 -2.97363281 138.53100586 C-3.95459583 137.51232457 -4.94942255 136.50619473 -5.97363281 135.53100586 Z M-12.97363281 146.53100586 C-13.30363281 147.85100586 -13.63363281 149.17100586 -13.97363281 150.53100586 C-11.49863281 152.51100586 -11.49863281 152.51100586 -8.97363281 154.53100586 C-8.97363281 151.89100586 -8.97363281 149.25100586 -8.97363281 146.53100586 C-10.29363281 146.53100586 -11.61363281 146.53100586 -12.97363281 146.53100586 Z M51.02636719 146.53100586 C51.02636719 149.17100586 51.02636719 151.81100586 51.02636719 154.53100586 C52.67636719 153.21100586 54.32636719 151.89100586 56.02636719 150.53100586 C55.69636719 149.21100586 55.36636719 147.89100586 55.02636719 146.53100586 C53.70636719 146.53100586 52.38636719 146.53100586 51.02636719 146.53100586 Z M57.02636719 152.53100586 C56.09303701 153.56028955 55.19279663 154.61952146 54.30371094 155.68725586 C48.74334278 162.13290624 42.62590235 168.03734373 36.58886719 174.03100586 C35.36793029 175.24691699 34.14722527 176.46306102 32.92675781 177.67944336 C29.96262705 180.63265552 26.9953776 183.58269984 24.02636719 186.53100586 C27.9441289 190.55114276 27.9441289 190.55114276 32.35839844 193.98803711 C32.92880859 194.37797852 33.49921875 194.76791992 34.08691406 195.16967773 C34.66505859 195.55704102 35.24320313 195.9444043 35.83886719 196.34350586 C36.43634766 196.75020508 37.03382812 197.1569043 37.64941406 197.57592773 C39.10511282 198.56580289 40.56527893 199.54910321 42.02636719 200.53100586 C44.86890041 197.09261516 46.70016654 193.2995976 48.56542969 189.28100586 C48.89175385 188.58587891 49.218078 187.89075195 49.55429077 187.17456055 C50.24057565 185.70978455 50.92458371 184.24393989 51.60644531 182.77709961 C52.64910222 180.53587448 53.7004561 178.29888507 54.75292969 176.06225586 C55.42011876 174.63541668 56.08680266 173.20834116 56.75292969 171.78100586 C57.06646393 171.11423828 57.37999817 170.4474707 57.70303345 169.76049805 C60.50667475 164.26961333 60.50667475 164.26961333 60.46777344 158.39038086 C60.17773438 157.69428711 59.88769531 156.99819336 59.58886719 156.28100586 C59.30140625 155.57459961 59.01394531 154.86819336 58.71777344 154.14038086 C58.37552734 153.34374023 58.37552734 153.34374023 58.02636719 152.53100586 C57.69636719 152.53100586 57.36636719 152.53100586 57.02636719 152.53100586 Z M-15.97363281 153.53100586 C-17.75653334 156.51364986 -18.59220639 158.13518151 -18.97363281 161.53100586 C-17.57434069 166.41395233 -15.27960887 170.8368033 -12.97363281 175.34350586 C-12.3734015 176.56164143 -11.77572268 177.78103821 -11.18066406 179.00170898 C-10.01663822 181.38322801 -8.83925907 183.75630803 -7.65332031 186.12719727 C-5.30966639 190.87650293 -3.12413996 195.6917454 -0.97363281 200.53100586 C5.89650885 196.93979544 11.90021563 192.23878735 18.02636719 187.53100586 C14.06684095 182.79058372 9.94388742 178.29980109 5.56933594 173.94116211 C4.98090408 173.35177353 4.39247223 172.76238495 3.78620911 172.15513611 C2.55637238 170.92462479 1.32529575 169.69535152 0.09301758 168.46728516 C-1.80212601 166.57755838 -3.69179558 164.68247315 -5.58105469 162.78686523 C-6.78060346 161.58797624 -7.98046184 160.38939694 -9.18066406 159.19116211 C-9.74727249 158.62252945 -10.31388092 158.05389679 -10.8976593 157.46803284 C-13.07620973 154.7674257 -13.07620973 154.7674257 -15.97363281 153.53100586 Z " fill="#FCFCFC" transform="translate(74.9736328125,37.468994140625)"/>
<path d="M0 0 C1.74818873 2.03087457 3.10461403 3.97889493 4.3984375 6.3203125 C5.0584375 7.3103125 5.7184375 8.3003125 6.3984375 9.3203125 C6.62548828 12.32299805 6.62548828 12.32299805 6.59375 15.95703125 C6.58730469 17.25576172 6.58085938 18.55449219 6.57421875 19.89257812 C6.5575081 21.26432557 6.54057821 22.63607036 6.5234375 24.0078125 C6.51340424 25.39126968 6.50427899 26.77473377 6.49609375 28.15820312 C6.47248717 31.54574702 6.43955787 34.93294322 6.3984375 38.3203125 C9.0384375 38.3203125 11.6784375 38.3203125 14.3984375 38.3203125 C14.3984375 36.3403125 14.3984375 34.3603125 14.3984375 32.3203125 C15.3884375 32.3203125 16.3784375 32.3203125 17.3984375 32.3203125 C17.3984375 35.2903125 17.3984375 38.2603125 17.3984375 41.3203125 C10.7984375 41.3203125 4.1984375 41.3203125 -2.6015625 41.3203125 C-2.6015625 38.3503125 -2.6015625 35.3803125 -2.6015625 32.3203125 C-1.6115625 32.3203125 -0.6215625 32.3203125 0.3984375 32.3203125 C0.3984375 34.3003125 0.3984375 36.2803125 0.3984375 38.3203125 C1.0584375 38.3203125 1.7184375 38.3203125 2.3984375 38.3203125 C2.37893274 34.29927293 2.32696559 30.28004647 2.24584961 26.25976562 C2.22275856 24.89432585 2.2082948 23.52871021 2.20288086 22.16308594 C2.4630242 13.38759069 2.4630242 13.38759069 -0.59765625 5.4296875 C-4.67604761 2.5657976 -7.60530411 2.49534294 -12.4765625 2.6953125 C-13.25386719 2.68886719 -14.03117187 2.68242188 -14.83203125 2.67578125 C-20.49526269 2.78047965 -23.90628704 4.17760813 -28.6015625 7.3203125 C-28.9315625 6.3303125 -29.2615625 5.3403125 -29.6015625 4.3203125 C-22.29848068 -2.15287366 -8.92652754 -5.76337364 0 0 Z " fill="#FAFAFA" transform="translate(88.6015625,104.6796875)"/>
<path d="M0 0 C0.66 0.33 1.32 0.66 2 1 C1.43788999 4.49972529 0.40362291 5.87469256 -2.3515625 8.05859375 C-3.03863281 8.60966797 -3.72570312 9.16074219 -4.43359375 9.72851562 C-5.51833984 10.57446289 -5.51833984 10.57446289 -6.625 11.4375 C-7.32496094 11.99759766 -8.02492188 12.55769531 -8.74609375 13.13476562 C-13.06642223 16.56938669 -17.48331225 19.82883471 -22 23 C-20.11677288 30.1191692 -18.04216655 37.14717952 -15.76953125 44.15234375 C-15 47 -15 47 -15 51 C-16.86621094 50.84887695 -16.86621094 50.84887695 -19 50 C-20.18847656 47.59838867 -20.18847656 47.59838867 -21.140625 44.41796875 C-21.48867188 43.25716797 -21.83671875 42.09636719 -22.1953125 40.90039062 C-22.54335938 39.67513672 -22.89140625 38.44988281 -23.25 37.1875 C-23.61351562 36.00478516 -23.97703125 34.82207031 -24.3515625 33.60351562 C-26.59871921 25.90320233 -27.49666147 19.0100459 -27 11 C-25.0549 13.91765 -24.54723683 15.62537285 -24 19 C-15.87380265 12.81168755 -7.86210719 6.5228705 0 0 Z " fill="#FCFCFC" transform="translate(27,237)"/>
<path d="M0 0 C5.62201779 4.14841353 11.0937569 8.44988991 16.5 12.875 C17.22703125 13.46796875 17.9540625 14.0609375 18.703125 14.671875 C20.46989678 16.11318882 22.23549858 17.55590841 24 19 C24.99 16.69 25.98 14.38 27 12 C27.33 12 27.66 12 28 12 C28.61929352 20.97058133 26.85857863 28.57774235 24.25 37.125 C23.90195313 38.35476563 23.55390625 39.58453125 23.1953125 40.8515625 C22.84726563 42.016875 22.49921875 43.1821875 22.140625 44.3828125 C21.82641602 45.43871582 21.51220703 46.49461914 21.18847656 47.58251953 C20 50 20 50 17.86621094 50.85107422 C17.25036133 50.90021973 16.63451172 50.94936523 16 51 C17.14150578 43.91244175 19.0929303 37.22512299 21.41088867 30.44726562 C22.84490039 26.266657 22.84490039 26.266657 22 22 C20.28502228 20.41173778 20.28502228 20.41173778 18.125 18.875 C14.39808627 16.06786947 10.73944123 13.20115282 7.125 10.25 C6.22007812 9.51265625 5.31515625 8.7753125 4.3828125 8.015625 C2.48576193 6.41090681 0.71458463 4.79406868 -1 3 C-0.67 2.01 -0.34 1.02 0 0 Z " fill="#FCFCFC" transform="translate(164,237)"/>
<path d="M0 0 C3.32770513 1.50184587 5.63934382 3.22664169 8 6 C7.34 6.99 6.68 7.98 6 9 C5.19820312 8.35289063 4.39640625 7.70578125 3.5703125 7.0390625 C-0.50856667 4.33018855 -4.3447835 4.33600965 -9.125 4.375 C-10.32189453 4.32666016 -10.32189453 4.32666016 -11.54296875 4.27734375 C-13.86089555 4.27347409 -15.77286708 4.35122158 -18 5 C-20.61778579 7.86477935 -20.61778579 7.86477935 -22 11 C-22.99 10.67 -23.98 10.34 -25 10 C-24.42562214 6.12294944 -22.57271945 3.88456423 -20 1 C-14.70076616 -1.64961692 -5.82800069 -0.82814705 0 0 Z " fill="#FAFAFA" transform="translate(125,103)"/>
<path d="M0 0 C2.70942393 -0.10861833 5.414439 -0.18758577 8.125 -0.25 C8.88554688 -0.28351563 9.64609375 -0.31703125 10.4296875 -0.3515625 C15.93420522 -0.44646798 18.71481224 0.52256328 23 4 C22.67 4.99 22.34 5.98 22 7 C19.36 5.68 16.72 4.36 14 3 C13.34 4.98 12.68 6.96 12 9 C10.02 9 8.04 9 6 9 C5.67 7.02 5.34 5.04 5 3 C3.35 3 1.7 3 0 3 C0 2.01 0 1.02 0 0 Z " fill="#FCFCFC" transform="translate(106,112)"/>
<path d="M0 0 C1.18916016 0.01353516 1.18916016 0.01353516 2.40234375 0.02734375 C4.35169281 0.05082988 6.30088575 0.08669863 8.25 0.125 C8.25 1.115 8.25 2.105 8.25 3.125 C7.63125 3.186875 7.0125 3.24875 6.375 3.3125 C3.97238859 3.953919 3.97238859 3.953919 3 6.6875 C2.7525 7.491875 2.505 8.29625 2.25 9.125 C0.27 9.125 -1.71 9.125 -3.75 9.125 C-4.41 7.475 -5.07 5.825 -5.75 4.125 C-6.4925 4.455 -7.235 4.785 -8 5.125 C-10.75 6.125 -10.75 6.125 -14.75 6.125 C-13.86150212 3.90375529 -13.16789351 2.4320238 -11.21875 1 C-7.49862949 -0.31852372 -3.91293579 -0.08435848 0 0 Z " fill="#FBFBFB" transform="translate(77.75,111.875)"/>
<path d="M0 0 C0.66 0 1.32 0 2 0 C1.3966199 5.84151507 0.30574057 11.29579198 -1.3125 16.9375 C-1.51294922 17.70384766 -1.71339844 18.47019531 -1.91992188 19.25976562 C-2.55078125 21.46484375 -2.55078125 21.46484375 -4 25 C-6.09057617 25.72094727 -6.09057617 25.72094727 -8 26 C-4.17877095 4.17877095 -4.17877095 4.17877095 0 0 Z " fill="#F2F2F2" transform="translate(188,262)"/>
<path d="M0 0 C0 1.32 0 2.64 0 4 C-8.91 4 -17.82 4 -27 4 C-27.33 3.01 -27.66 2.02 -28 1 C-24.83350749 0.82991412 -21.6667838 0.66456601 -18.5 0.5 C-17.1696875 0.42845703 -17.1696875 0.42845703 -15.8125 0.35546875 C-10.53287287 0.08372324 -5.28655326 -0.04940704 0 0 Z " fill="#FEFEFE" transform="translate(110,155)"/>
<path d="M0 0 C2 2 2 2 3 5 C3.66 5.33 4.32 5.66 5 6 C5.96999465 8.60134928 6.82641236 11.15905329 7.625 13.8125 C7.85445312 14.53759766 8.08390625 15.26269531 8.3203125 16.00976562 C9.39846378 19.51696606 10 22.30136712 10 26 C8.68 25.67 7.36 25.34 6 25 C4.99131083 21.58583753 3.99457679 18.16829771 3 14.75 C2.71382813 13.78191406 2.42765625 12.81382812 2.1328125 11.81640625 C1.86210938 10.88183594 1.59140625 9.94726562 1.3125 8.984375 C0.93544922 7.69611816 0.93544922 7.69611816 0.55078125 6.38183594 C0 4 0 4 0 0 Z " fill="#F4F4F4" transform="translate(2,262)"/>
<path d="M0 0 C0.33 0.66 0.66 1.32 1 2 C-1.64 2.33 -4.28 2.66 -7 3 C-6.67 4.98 -6.34 6.96 -6 9 C-6.78375 9.103125 -7.5675 9.20625 -8.375 9.3125 C-11.33045181 9.77595022 -11.33045181 9.77595022 -13 13 C-13.66 12.67 -14.32 12.34 -15 12 C-13.68 10.35 -12.36 8.7 -11 7 C-11.99 6.01 -12.98 5.02 -14 4 C-9.22642128 1.28608722 -5.65611463 -0.56561146 0 0 Z M-16 13 C-16 16 -16 16 -16 16 Z " fill="#F1F1F1" transform="translate(68,71)"/>
<path d="M0 0 C4.62 0 9.24 0 14 0 C14 1.32 14 2.64 14 4 C9.38 4 4.76 4 0 4 C0 2.68 0 1.36 0 0 Z " fill="#F5F5F5" transform="translate(89,162)"/>
<path d="M0 0 C6.6 0 13.2 0 20 0 C20 0.99 20 1.98 20 3 C13.73 3 7.46 3 1 3 C0.67 2.01 0.34 1.02 0 0 Z " fill="#FFFFFE" transform="translate(86,192)"/>
<path d="M0 0 C0.33 0 0.66 0 1 0 C1.05437607 1.58294782 1.09296271 3.16644256 1.125 4.75 C1.14820313 5.63171875 1.17140625 6.5134375 1.1953125 7.421875 C0.99139502 10.1135858 0.36551721 11.69904974 -1 14 C-1.99 14 -2.98 14 -4 14 C-3.71572583 12.41532272 -3.42225182 10.8322943 -3.125 9.25 C-2.96257812 8.36828125 -2.80015625 7.4865625 -2.6328125 6.578125 C-2.03203736 4.13052256 -1.22002883 2.19400143 0 0 Z " fill="#F9F9F9" transform="translate(184,274)"/>
<path d="M0 0 C0.99 0 1.98 0 3 0 C3 2.97 3 5.94 3 9 C0.69 9 -1.62 9 -4 9 C-4 8.67 -4 8.34 -4 8 C-2.02 8 -0.04 8 2 8 C1.34 7.67 0.68 7.34 0 7 C0 4.69 0 2.38 0 0 Z " fill="#F4F4F4" transform="translate(103,137)"/>
<path d="M0 0 C4.62 0 9.24 0 14 0 C14 0.33 14 0.66 14 1 C8.06 1.495 8.06 1.495 2 2 C2.66 2.66 3.32 3.32 4 4 C2.35 3.67 0.7 3.34 -1 3 C-0.67 2.01 -0.34 1.02 0 0 Z " fill="#FDFDFE" transform="translate(89,162)"/>
<path d="M0 0 C1.65 0 3.3 0 5 0 C4.67 1.32 4.34 2.64 4 4 C2.02 4 0.04 4 -2 4 C-1.34 2.68 -0.68 1.36 0 0 Z " fill="#F2F2F2" transform="translate(81,71)"/>
<path d="M0 0 C0.66 0 1.32 0 2 0 C1.67 2.97 1.34 5.94 1 9 C0.34 9 -0.32 9 -1 9 C-1.625 6.1875 -1.625 6.1875 -2 3 C-1.34 2.01 -0.68 1.02 0 0 Z " fill="#F5F6F5" transform="translate(143,122)"/>
</svg>
