<?xml version="1.0" encoding="UTF-8" standalone="no"?>
<svg
   version="1.1"
   width="192"
   height="288"
   id="svg10"
   sodipodi:docname="39b83d0b-700c-4e6b-8f9c-6d85faade5a0.svg"
   xmlns:inkscape="http://www.inkscape.org/namespaces/inkscape"
   xmlns:sodipodi="http://sodipodi.sourceforge.net/DTD/sodipodi-0.dtd"
   xmlns="http://www.w3.org/2000/svg"
   xmlns:svg="http://www.w3.org/2000/svg">
  <defs
     id="defs10" />
  <sodipodi:namedview
     id="namedview10"
     pagecolor="#ffffff"
     bordercolor="#000000"
     borderopacity="0.25"
     inkscape:showpageshadow="2"
     inkscape:pageopacity="0.0"
     inkscape:pagecheckerboard="0"
     inkscape:deskcolor="#d1d1d1" />
  <path
     d="M0 0 C0 10.56 0 21.12 0 32 C5.94 31.505 5.94 31.505 12 31 C14.13978808 30.93186788 16.28103554 30.8904502 18.421875 30.90234375 C19.46601562 30.90556641 20.51015625 30.90878906 21.5859375 30.91210938 C23.15214844 30.92467773 23.15214844 30.92467773 24.75 30.9375 C25.84054688 30.94201172 26.93109375 30.94652344 28.0546875 30.95117188 C30.70318616 30.9627881 33.35156101 30.97911832 36 31 C35.96447021 30.23856689 35.92894043 29.47713379 35.89233398 28.69262695 C35.73443583 25.23283841 35.5858732 21.77270956 35.4375 18.3125 C35.35338867 16.51522461 35.35338867 16.51522461 35.26757812 14.68164062 C35.19506836 12.94624023 35.19506836 12.94624023 35.12109375 11.17578125 C35.05039673 9.58117065 35.05039673 9.58117065 34.97827148 7.9543457 C34.9988821 5.15199618 35.3474589 2.7178227 36 0 C37.70899819 0.11555504 39.41719869 0.24293003 41.125 0.375 C42.55199219 0.47941406 42.55199219 0.47941406 44.0078125 0.5859375 C47.38231232 1.05290484 49.92074573 1.49963852 53 3 C54.76995354 5.45330952 56.08683797 7.64073091 57.4375 10.3125 C58.04779053 11.4571875 58.04779053 11.4571875 58.67041016 12.625 C61.11909368 17.25158622 63.47213149 21.92722995 65.83711243 26.5969696 C67.17765235 29.24033114 68.52513429 31.88013944 69.87185669 34.52035522 C70.86620574 36.48264504 71.84468164 38.45229055 72.82202148 40.4230957 C73.44075985 41.64689178 74.05996129 42.87045387 74.6796875 44.09375 C75.22351074 45.18365234 75.76733398 46.27355469 76.32763672 47.39648438 C78.69410277 51.08057108 80.57426512 51.64836997 84.71728516 52.67016602 C85.73097168 52.86280029 86.7446582 53.05543457 87.7890625 53.25390625 C88.89507812 53.46853516 90.00109375 53.68316406 91.140625 53.90429688 C92.29046875 54.12150391 93.4403125 54.33871094 94.625 54.5625 C96.9093405 54.99876325 99.19322133 55.43744251 101.4765625 55.87890625 C102.48799316 56.0704126 103.49942383 56.26191895 104.54150391 56.45922852 C107 57 107 57 109 58 C107.95026168 63.24869162 106.68153296 68.37692302 105.125 73.5 C104.66480469 75.03140625 104.66480469 75.03140625 104.1953125 76.59375 C103 79 103 79 101.42163086 79.76293945 C97.79117433 80.11833549 94.53780434 79.12516785 91.05859375 78.19921875 C90.29450699 78.00278275 89.53042023 77.80634674 88.74317932 77.60395813 C87.13074664 77.18721045 85.51951044 76.76580952 83.90942383 76.34008789 C81.44574232 75.68967597 78.97827229 75.05564975 76.50976562 74.42382812 C74.94245726 74.01659006 73.37539116 73.60841823 71.80859375 73.19921875 C71.07104355 73.00954025 70.33349335 72.81986176 69.57359314 72.62443542 C66.2728954 71.74469896 63.87012374 70.91341583 61 69 C60.22163391 67.12704468 60.22163391 67.12704468 59.6496582 64.82568359 C59.42965652 63.96494232 59.20965485 63.10420105 58.98298645 62.21737671 C58.75785873 61.28712677 58.53273102 60.35687683 58.30078125 59.3984375 C58.0608696 58.44683746 57.82095795 57.49523743 57.57377625 56.51480103 C56.80902879 53.47082676 56.06061341 50.42310042 55.3125 47.375 C54.79729343 45.31223259 54.28103055 43.2497287 53.76367188 41.1875 C52.49683566 36.12799548 51.24338953 31.06531447 50 26 C50.05760498 27.29099609 50.11520996 28.58199219 50.17456055 29.91210938 C50.37448171 34.72700268 50.50021962 39.54153482 50.60424805 44.359375 C50.65938634 46.43943055 50.73432486 48.51906314 50.82983398 50.59765625 C51.59774001 67.74618859 51.59774001 67.74618859 47.90893555 72.94970703 C45.03917869 75.08091031 42.2561118 76.53423269 39 78 C37.04993453 79.14509375 35.11086826 80.30913721 33.18359375 81.4921875 C30.29014413 83.20347314 27.39539874 84.89846628 24.45898438 86.53515625 C23.05422852 87.38013672 23.05422852 87.38013672 21.62109375 88.2421875 C20.7798999 88.7254248 19.93870605 89.20866211 19.07202148 89.70654297 C13.1481459 96.26349917 14.1457601 108.90411356 13.2734375 117.4140625 C13.11976305 118.87954935 12.96567259 120.34499264 12.81118774 121.81039429 C12.40923582 125.63375287 12.01287051 129.45766986 11.61773682 133.28173828 C11.21212667 137.1972989 10.80113764 141.11229463 10.390625 145.02734375 C9.5885376 152.68435841 8.79236181 160.34197214 8 168 C4.12352213 168.91102913 0.53528248 169.12137137 -3.44262695 169.11352539 C-4.72357742 169.11344986 -6.00452789 169.11337433 -7.32429504 169.11329651 C-8.71229085 169.10819065 -10.10028625 169.10297467 -11.48828125 169.09765625 C-12.91603038 169.09578975 -14.34378015 169.09436694 -15.77153015 169.09336853 C-19.51813545 169.08956165 -23.2647016 169.07974707 -27.0112915 169.06866455 C-30.83890249 169.05841102 -34.66651984 169.05386248 -38.49414062 169.04882812 C-45.99611154 169.03812307 -53.49805027 169.02106873 -61 169 C-61 168.01 -61 167.02 -61 166 C-57.25497733 164.1124354 -53.50143013 162.24342464 -49.73901367 160.39086914 C-48.46114059 159.75849119 -47.18570494 159.12116223 -45.9128418 158.47875977 C-44.07963948 157.55464255 -42.2383246 156.64885659 -40.39453125 155.74609375 C-39.28956299 155.19622803 -38.18459473 154.6463623 -37.04614258 154.07983398 C-33.7318378 152.90493857 -32.28804418 152.89618193 -29 154 C-26.39453125 155.41015625 -26.39453125 155.41015625 -23.8125 157.0625 C-20.63945897 159.30010601 -20.63945897 159.30010601 -17 160 C-16.9854606 159.34459575 -16.97092119 158.68919149 -16.9559412 158.01392651 C-16.59903323 141.93154605 -16.23988392 125.84921736 -15.87835789 109.76694012 C-15.70356567 101.98909998 -15.52948234 94.21124528 -15.35717773 86.43334961 C-15.20667707 79.63977887 -15.05473454 72.84624203 -14.90118736 66.05273944 C-14.82022782 62.46870545 -14.73990372 58.88466023 -14.66131783 55.30057335 C-14.34859626 41.06262463 -13.99938636 26.8263162 -13.51538086 12.59301758 C-13.47899537 11.43474551 -13.44260988 10.27647345 -13.4051218 9.08310223 C-13.36709918 8.03138238 -13.32907656 6.97966253 -13.28990173 5.89607239 C-13.24211279 4.50804523 -13.24211279 4.50804523 -13.19335842 3.09197712 C-13 1 -13 1 -12 0 C-10.54998009 -0.25996373 -9.08877907 -0.45919978 -7.625 -0.625 C-6.43777344 -0.76808594 -6.43777344 -0.76808594 -5.2265625 -0.9140625 C-3 -1 -3 -1 0 0 Z "
     fill="#F6F6F6"
     transform="translate(68,98)"
     id="path1" />
  <path
     d="M0 0 C0.96493406 10.20441188 1.24437343 20.3784475 1.44418335 30.62069702 C1.50086434 33.41765139 1.56605667 36.21428488 1.6340332 39.01098633 C1.82483878 46.87860887 2.00794034 54.7435354 2.07421875 62.61328125 C2.11134177 64.63803262 2.14903192 66.66277374 2.1875 68.6875 C2.18105469 69.5626123 2.17460938 70.43772461 2.16796875 71.33935547 C2.31174012 76.91161909 3.69374794 79.61766679 7.71606445 83.50317383 C9 85 9 85 9 88 C-1.23 88 -11.46 88 -22 88 C-23.74696147 72.26843367 -23.74696147 72.26843367 -24.48828125 65.54296875 C-24.99339903 60.96056398 -25.49921596 56.37824421 -26.00927734 51.79638672 C-26.42062374 48.10087403 -26.82876675 44.40502012 -27.23472595 40.7089119 C-27.38987576 39.3014537 -27.5461638 37.89412048 -27.70362854 36.4869194 C-27.92460665 34.51033532 -28.14110015 32.53325145 -28.35742188 30.55615234 C-28.48177612 29.43252289 -28.60613037 28.30889343 -28.73425293 27.1512146 C-28.99517615 24.05720098 -29.19803152 21.10058304 -29 18 C-26.859375 15.8671875 -26.859375 15.8671875 -24 14 C-23.07703125 13.36320313 -22.1540625 12.72640625 -21.203125 12.0703125 C-19.16289808 10.7263535 -17.12252416 9.38261763 -15.08203125 8.0390625 C-13.15020182 6.76097003 -11.22900532 5.46649419 -9.32421875 4.1484375 C-8.14279297 3.33246094 -8.14279297 3.33246094 -6.9375 2.5 C-6.24527344 2.0153125 -5.55304688 1.530625 -4.83984375 1.03125 C-3 0 -3 0 0 0 Z "
     fill="#F7F7F6"
     transform="translate(118,178)"
     id="path2" />
  <path
     d="M0 0 C0.66 0 1.32 0 2 0 C2.08122607 6.16605219 1.81134985 12.15335143 1.17382812 18.28344727 C1.08604599 19.16258286 0.99826385 20.04171844 0.90782166 20.94749451 C0.61985883 23.82090878 0.32560944 26.69364084 0.03125 29.56640625 C-0.17092252 31.57132604 -0.3726987 33.57628583 -0.57409668 35.58128357 C-1.1028006 40.83411515 -1.63685637 46.08638904 -2.17205811 51.33856201 C-2.71822198 56.70780117 -3.25928171 62.07755441 -3.80078125 67.44726562 C-4.86221472 77.96535086 -5.92930724 88.48285357 -7 99 C-10.12339167 100.00399203 -10.67326151 100.16544891 -13.76171875 98.6015625 C-14.72722656 97.94929688 -15.69273438 97.29703125 -16.6875 96.625 C-17.66074219 95.97789062 -18.63398438 95.33078125 -19.63671875 94.6640625 C-22 93 -22 93 -23 92 C-23.20933695 90.3336931 -23.35537706 88.65940179 -23.4765625 86.984375 C-23.74329705 83.35721365 -24.02569615 79.73883251 -24.38183594 76.11914062 C-26.38919919 55.66778917 -25.88242142 41.31910439 -13.86035156 23.78613281 C-10.68093322 19.02451574 -7.97317437 13.99818913 -5.1875 9 C-4.18434032 7.24807709 -3.1781728 5.49787042 -2.16796875 3.75 C-1.74797607 3.02296875 -1.3279834 2.2959375 -0.89526367 1.546875 C-0.59982666 1.03640625 -0.30438965 0.5259375 0 0 Z "
     fill="#F7F8F7"
     transform="translate(50,100)"
     id="path3" />
  <path
     d="M0 0 C3.72354621 0.32046914 7.35552785 1.1968439 11 2 C11.6997998 2.14679199 12.39959961 2.29358398 13.12060547 2.44482422 C26.54118765 5.35955686 26.54118765 5.35955686 29.9765625 9.22265625 C31.51503563 12.626113 32 15.27252406 32 19 C32.61786377 19.10231934 33.23572754 19.20463867 33.87231445 19.31005859 C42.06632622 20.72763533 50.11494172 22.64166889 58.1875 24.625 C59.53443391 24.95341757 60.88143874 25.28154439 62.22851562 25.609375 C65.48638284 26.40340715 68.7435105 27.2003399 72 28 C72 28.66 72 29.32 72 30 C33.06 30 -5.88 30 -46 30 C-46 29.34 -46 28.68 -46 28 C-10.28384279 19 -10.28384279 19 -6 19 C-5.731875 17.88625 -5.46375 16.7725 -5.1875 15.625 C-1.70002983 1.70002983 -1.70002983 1.70002983 0 0 Z "
     fill="#F6F6F6"
     transform="translate(73,26)"
     id="path4" />
  <path
     d="M0 0 C2.97 0.33 5.94 0.66 9 1 C8.46889801 9.65484989 7.21570168 17.99975501 5.53125 26.5 C5.29088013 27.7387085 5.05051025 28.97741699 4.80285645 30.25366211 C4.17000786 33.50798913 3.531575 36.76115224 2.89044189 40.01385498 C2.36743379 42.67435315 1.85008023 45.3359364 1.33298492 47.99758911 C0.26367345 53.50084105 -0.80994005 59.00326042 -1.89257812 64.50390625 C-2.08275513 65.47142822 -2.27293213 66.4389502 -2.46887207 67.43579102 C-2.92579693 69.6417583 -3.43310169 71.82011618 -4 74 C-3.30777344 73.9071875 -2.61554688 73.814375 -1.90234375 73.71875 C8.15658027 72.9765896 14.69976365 76.92007393 23 82 C23 82.99 23 83.98 23 85 C16.48554795 85.0505939 9.97114632 85.08568856 3.45654297 85.10986328 C1.23907579 85.11993825 -0.97837805 85.13359859 -3.19580078 85.15087891 C-6.37796312 85.17506163 -9.55995024 85.18646797 -12.7421875 85.1953125 C-14.23599442 85.21079636 -14.23599442 85.21079636 -15.75997925 85.22659302 C-17.14118454 85.22681961 -17.14118454 85.22681961 -18.55029297 85.22705078 C-19.3630368 85.231492 -20.17578064 85.23593323 -21.01315308 85.24050903 C-23 85 -23 85 -25 83 C-23.54712339 81.66072279 -22.08752741 80.32873153 -20.625 79 C-19.81289062 78.2575 -19.00078125 77.515 -18.1640625 76.75 C-16 75 -16 75 -14 75 C-13.84289551 73.94748047 -13.68579102 72.89496094 -13.52392578 71.81054688 C-11.50056504 58.512303 -9.06660281 45.30135197 -6.55615234 32.08740234 C-5.86567741 28.45090102 -5.18061174 24.8134081 -4.49609375 21.17578125 C-4.05760625 18.85671133 -3.61881577 16.53769867 -3.1796875 14.21875 C-2.97552216 13.13452759 -2.77135681 12.05030518 -2.56100464 10.93322754 C-2.27533127 9.43390686 -2.27533127 9.43390686 -1.98388672 7.90429688 C-1.81750702 7.02672729 -1.65112732 6.14915771 -1.47970581 5.24499512 C-1 3 -1 3 0 0 Z "
     fill="#F6F6F6"
     transform="translate(159,182)"
     id="path5" />
  <path
     d="M0 0 C8.11448979 9.33566082 7.87957175 18.57978246 7.4375 30.25 C7.40230184 31.88144261 7.37037797 33.5129593 7.34179688 35.14453125 C7.26552774 39.09822054 7.14523732 43.04826798 7 47 C4.81479322 44.96718622 3.33488495 43.06854982 1.95703125 40.42578125 C1.63968018 39.82419189 1.3223291 39.22260254 0.99536133 38.6027832 C0.60501709 37.84698975 0.21467285 37.09119629 -0.1875 36.3125 C-2.0746875 32.6928125 -2.0746875 32.6928125 -4 29 C-5.98 37.91 -7.96 46.82 -10 56 C-12.97 55.67 -15.94 55.34 -19 55 C-18.47519599 45.24820965 -16.93910968 35.72965104 -15.20849609 26.1340332 C-14.74704982 23.54595356 -14.31311045 20.95409868 -13.87890625 18.36132812 C-13.58241293 16.70021942 -13.28429401 15.03939986 -12.984375 13.37890625 C-12.86020203 12.61115372 -12.73602905 11.84340118 -12.60809326 11.05238342 C-11.64881405 5.98213499 -10.17909161 3.32377086 -6 0 C-3 -1 -3 -1 0 0 Z "
     fill="#F8F7F7"
     transform="translate(185,94)"
     id="path6" />
  <path
     d="M0 0 C12.33775615 0.59966343 24.67047577 1.24936834 37 2 C38.59785621 6.96621382 37.12810669 11.18799748 35.9375 16.125 C35.74478516 17.04410156 35.55207031 17.96320313 35.35351562 18.91015625 C34.74996894 21.42401125 34.11971039 23.66952712 33 26 C28.69982716 28.56633313 23.91403543 28.30542145 19 28.25 C18.31421875 28.25773437 17.6284375 28.26546875 16.921875 28.2734375 C8.7701823 28.24232417 8.7701823 28.24232417 5 26 C3.49655999 22.86875164 2.82575423 19.63857867 2.125 16.25 C1.80789062 14.90808594 1.80789062 14.90808594 1.484375 13.5390625 C0.44388634 8.95820982 -0.26600742 4.72554353 0 0 Z "
     fill="#F7F7F6"
     transform="translate(67,61)"
     id="path7" />
  <path
     d="M0 0 C1.39508789 -0.00193359 1.39508789 -0.00193359 2.81835938 -0.00390625 C3.78193359 -0.00003906 4.74550781 0.00382812 5.73828125 0.0078125 C6.71345703 0.00394531 7.68863281 0.00007813 8.69335938 -0.00390625 C9.61955078 -0.00261719 10.54574219 -0.00132813 11.5 0 C12.77363403 0.00169189 12.77363403 0.00169189 14.07299805 0.00341797 C16.05078125 0.1328125 16.05078125 0.1328125 17.05078125 1.1328125 C17.14393258 4.55091344 16.90377817 7.96858845 16.73828125 11.3828125 C16.70283203 12.33800781 16.66738281 13.29320313 16.63085938 14.27734375 C16.58767578 15.20417969 16.54449219 16.13101563 16.5 17.0859375 C16.46221436 17.93317383 16.42442871 18.78041016 16.38549805 19.65332031 C16.01534591 22.39530797 15.17190625 24.61288623 14.05078125 27.1328125 C10.75918809 27.19071603 7.46772522 27.22637511 4.17578125 27.2578125 C2.77005859 27.28294922 2.77005859 27.28294922 1.3359375 27.30859375 C0.44003906 27.31503906 -0.45585938 27.32148437 -1.37890625 27.328125 C-2.20632324 27.33859863 -3.03374023 27.34907227 -3.88623047 27.35986328 C-5.94921875 27.1328125 -5.94921875 27.1328125 -7.94921875 25.1328125 C-9.30761801 17.26434884 -9.07621869 9.09147532 -8.94921875 1.1328125 C-5.8994878 0.24585826 -3.17153249 0.00419634 0 0 Z "
     fill="#F8F8F8"
     transform="translate(81.94921875,95.8671875)"
     id="path8" />
  <path
     d="M0 0 C-0.33 0.66 -0.66 1.32 -1 2 C-0.01 2.66 0.98 3.32 2 4 C-0.97 4 -3.94 4 -7 4 C-7 3.01 -7 2.02 -7 1 C-3.375 -1.125 -3.375 -1.125 0 0 Z "
     fill="#FDFDFC"
     transform="translate(14,263)"
     id="path9" />
  <path
     d="M0 0 C1.13643966 3.40931897 0.86747764 4.00335456 -0.4375 7.1875 C-0.72496094 7.90292969 -1.01242188 8.61835937 -1.30859375 9.35546875 C-1.53675781 9.89816406 -1.76492187 10.44085938 -2 11 C-2.66 11 -3.32 11 -4 11 C-2.25 3.375 -2.25 3.375 0 0 Z "
     fill="#FEFEFE"
     transform="translate(71,34)"
     id="path10" />
</svg>
