<?xml version="1.0" encoding="UTF-8"?>
<svg version="1.1" xmlns="http://www.w3.org/2000/svg" width="192" height="288">
<path d="M0 0 C10.86577346 5.86751767 17.16091262 13.22014637 23 24 C23.86625 23.195625 24.7325 22.39125 25.625 21.5625 C29.30399194 18.39932549 33.24466943 15.75250876 37.3125 13.125 C37.93527832 12.71967041 38.55805664 12.31434082 39.19970703 11.89672852 C43.74878165 9 43.74878165 9 46 9 C47.51138772 18.15636834 48.42525369 27.36918971 49.0625 36.625 C49.16103271 37.66785156 49.25956543 38.71070313 49.36108398 39.78515625 C49.78434832 47.08928581 49.78434832 47.08928581 47.43310547 49.81933594 C45.49609375 51.2109375 45.49609375 51.2109375 42 53 C42.68286071 56.65985093 44.25027305 59.46558323 46.08984375 62.68359375 C46.70923828 63.77607422 47.32863281 64.86855469 47.96679688 65.99414062 C48.61712891 67.13044922 49.26746094 68.26675781 49.9375 69.4375 C51.22027156 71.68458836 52.5003257 73.93323069 53.77734375 76.18359375 C54.34702881 77.17931396 54.91671387 78.17503418 55.50366211 79.20092773 C57.80895614 83.51324559 59.27183119 86.89365497 59.125 91.8125 C59.10695313 92.60269531 59.08890625 93.39289063 59.0703125 94.20703125 C59.04710938 94.79871094 59.02390625 95.39039062 59 96 C61.64 96.33 64.28 96.66 67 97 C68.13694606 85.44104841 61.33185901 77.29752942 55.24829102 68.03442383 C54.15213197 66.36500158 53.07600605 64.68248218 52 63 C51.40687012 62.0728418 51.40687012 62.0728418 50.80175781 61.12695312 C49.78608262 59.46525619 48.88421593 57.73522188 48 56 C48.33 55.01 48.66 54.02 49 53 C70.05300028 72.02728204 77.02429648 82.82073957 78.58984375 111.5234375 C78.69606279 113.62706954 78.79773637 115.73085173 78.89666748 117.83483887 C78.96624688 119.29275954 79.03910507 120.750527 79.11505127 122.20812988 C79.34595892 126.6514303 79.52245097 131.09139022 79.62713623 135.53952026 C79.66686086 136.95307827 79.72199433 138.36630121 79.79376221 139.77859497 C80.17430015 147.60347948 79.81811643 152.87434377 74.796875 159.1015625 C73.23002458 160.76521035 71.63390395 162.40215699 70 164 C68.99956824 165.08564438 68.00049709 166.17254745 67.00390625 167.26171875 C66.19824219 168.06222656 65.39257812 168.86273438 64.5625 169.6875 C63.73878906 170.51636719 62.91507812 171.34523437 62.06640625 172.19921875 C60 174 60 174 58 174 C57.67 163.11 57.34 152.22 57 141 C49.20982026 142.29836329 43.17552411 143.36897449 36 146 C38.33440802 137.69988258 45.96086236 131.44795902 53 127 C56.76763227 124.97068587 59.62983977 124 64 124 C65.67226118 131.98268072 67.28621973 139.86290495 68 148 C69.52791083 146.47208917 69.16183457 145.07010592 69.20532227 142.93920898 C69.22526749 142.07839218 69.24521271 141.21757538 69.26576233 140.33067322 C69.28247482 139.39526199 69.29918732 138.45985077 69.31640625 137.49609375 C69.33718735 136.54307877 69.35796844 135.59006378 69.37937927 134.60816956 C69.44498177 131.5513559 69.50380918 128.49445344 69.5625 125.4375 C69.60567506 123.37043337 69.64928901 121.30337586 69.69335938 119.23632812 C69.80067401 114.15764405 69.90191091 109.0788703 70 104 C68.0358472 104.23649489 68.0358472 104.23649489 66 105 C64.94952356 107.31104818 63.94992562 109.64583651 63 112 C59.27420911 114.48386059 57.41288598 114.3804212 53 114 C50.0625 112.5 50.0625 112.5 48 111 C47.73952881 111.83861572 47.47905762 112.67723145 47.21069336 113.54125977 C45.90826068 117.26208328 44.32229393 120.78674638 42.62890625 124.33984375 C42.14441261 125.36761681 42.14441261 125.36761681 41.65013123 126.41615295 C40.62409482 128.59145168 39.59355788 130.7645775 38.5625 132.9375 C37.535766 135.10719748 36.51002382 137.2773554 35.48558044 139.44813538 C34.85041122 140.7934383 34.2138363 142.13807881 33.57557678 143.48191833 C31.61980775 147.61665951 29.77968974 151.78633777 28 156 C28.90621094 155.7834375 29.81242187 155.566875 30.74609375 155.34375 C37.64287391 153.76734311 43.92194824 152.52013208 51 153 C53.24955155 155.24955155 52.78708311 159.95072592 53 163 C53.05671875 163.6796582 53.1134375 164.35931641 53.171875 165.05957031 C54.22412903 178.90029804 54.22412903 178.90029804 51.28515625 183.94140625 C49.28226223 185.96603149 47.46759681 187.58286609 45 189 C44.34 189 43.68 189 43 189 C42.67 181.74 42.34 174.48 42 167 C33.585 166.505 33.585 166.505 25 166 C25.33 168.64 25.66 171.28 26 174 C26.78246094 174.20496094 27.56492188 174.40992188 28.37109375 174.62109375 C29.38300781 174.89050781 30.39492188 175.15992188 31.4375 175.4375 C32.44683594 175.70433594 33.45617188 175.97117188 34.49609375 176.24609375 C37 177 37 177 38 178 C38.58648382 192.31878798 36.46930955 204.00185006 27.75537109 215.66601562 C23.75906726 218.70298422 17.30422338 217.46476855 12.5 217.4375 C11.25089844 217.45748047 10.00179688 217.47746094 8.71484375 217.49804688 C7.51988281 217.49740234 6.32492188 217.49675781 5.09375 217.49609375 C3.99740234 217.49794678 2.90105469 217.4997998 1.77148438 217.50170898 C-1 217 -1 217 -2.80664062 215.14086914 C-4 213 -4 213 -5.1875 210.25 C-6.94367516 207.10099627 -8.42279314 205.61334766 -11.0625 203.25 C-14.7306598 199.66335487 -16.46952549 196.81639544 -17.15234375 191.70703125 C-16.81271675 185.67212077 -13.74100747 180.40112592 -11.03181458 175.10861206 C-8.14986293 169.14404457 -7.0608521 163.5935454 -6.33203125 157.04296875 C-6.20688644 156.0187532 -6.08174164 154.99453766 -5.95280457 153.93928528 C-5.55933133 150.69012796 -5.18586324 147.43902257 -4.8125 144.1875 C-4.55139095 142.01742606 -4.28903171 139.84750216 -4.02539062 137.67773438 C-3.31839432 131.78830092 -2.61992416 125.89931482 -2 120 C-1.88328949 118.92368317 -1.76657898 117.84736633 -1.64633179 116.73843384 C-1.54092072 115.66757538 -1.43550964 114.59671692 -1.3269043 113.4934082 C-1.22814499 112.51982864 -1.12938568 111.54624908 -1.02763367 110.54316711 C-0.99039629 107.11615644 -2.38163219 104.96700765 -4 102 C-4 90.7150803 2.96048474 82.21276781 10 74 C10.59039063 73.28714844 11.18078125 72.57429688 11.7890625 71.83984375 C16.69113294 66.03122604 21.9952544 60.19950686 29 57 C24.48979324 51.67766598 19.77605 46.78862467 14.625 42.078125 C13 40 13 40 13.14453125 37.85546875 C14 36 14 36 15.6875 34.0625 C17.27108978 32.08116932 17.27108978 32.08116932 16.625 29.75 C13.16627821 23.8967785 8.49301134 18.99491734 3 15 C-1.80699858 27.56769508 1.20895951 39.86559352 5.36621094 52.08642578 C6.34161428 55.03142248 7.16836518 58.01155526 8 61 C0.09821305 58.32897343 -5.31283049 51.93502793 -9 44.625 C-13.14157232 35.56531055 -13.30291141 25.93906606 -10.0546875 16.48828125 C-7.54940454 10.57766923 -4.83398485 4.35921848 0 0 Z M37 61 C37.45786807 68.47047896 38.1679356 75.71727985 39.6953125 83.05078125 C40.51335595 90.96902229 37.93462486 97.39646528 35.0625 104.625 C31.54432321 113.74654683 28.22490401 122.91559818 25.11203003 132.18206787 C24.66453014 133.5125211 24.21413749 134.84200504 23.76077271 136.17047119 C23.12299154 138.04196738 22.49681957 139.9174075 21.87109375 141.79296875 C21.50943115 142.8708667 21.14776855 143.94876465 20.77514648 145.05932617 C20.03716504 147.85900696 19.84072086 150.12333229 20 153 C20.66 153.33 21.32 153.66 22 154 C22.62660522 152.52744751 22.62660522 152.52744751 23.26586914 151.02514648 C24.84936977 147.30577331 26.43630655 143.58787381 28.02416992 139.87036133 C28.70476334 138.27569558 29.38448256 136.68065639 30.06323242 135.08520508 C33.53567253 126.92458529 37.03855857 118.77975934 40.74609375 110.72265625 C41.27775146 109.56644775 41.80940918 108.41023926 42.35717773 107.21899414 C44.18732871 103.63294264 46.12604798 99.87395202 49 97 C49.43102716 91.29436924 48.29193559 87.04728686 46.3125 81.8125 C46.04356934 81.07652588 45.77463867 80.34055176 45.49755859 79.58227539 C43.1817913 73.31171186 40.6688026 67.1287989 38 61 C37.67 61 37.34 61 37 61 Z M30 71 C25.68388175 84.65821765 22.10125942 98.38427361 18.95751953 112.35742188 C18.24400785 115.52661524 17.51926587 118.69308977 16.79296875 121.859375 C13.48504856 136.35035749 13.48504856 136.35035749 11 151 C11.99 151 12.98 151 14 151 C14.27150879 150.01942627 14.54301758 149.03885254 14.82275391 148.02856445 C16.08911169 143.45624957 17.35688203 138.88432697 18.625 134.3125 C18.85242889 133.49232391 19.07985779 132.67214783 19.31417847 131.82711792 C22.25365715 121.23039679 25.20857837 110.63910552 28.28564453 100.08129883 C30.33671021 92.997257 31.13774292 87.02079086 31.0625 79.6875 C31.05798828 78.85154297 31.05347656 78.01558594 31.04882812 77.15429688 C31.03710548 75.10283351 31.01917203 73.05140727 31 71 C30.67 71 30.34 71 30 71 Z M22 72 C20.78331631 73.45137395 19.57722036 74.91162316 18.375 76.375 C17.70210937 77.18710938 17.02921875 77.99921875 16.3359375 78.8359375 C10.47827512 86.77022935 7.15177939 93.03567339 6.3125 102.9375 C6.20639404 103.95658447 6.10028809 104.97566895 5.9909668 106.02563477 C5.7647344 108.20495737 5.54793736 110.38527692 5.33984375 112.56640625 C4.9867966 116.13339988 4.57880949 119.69060249 4.15625 123.25 C3.87466651 125.64579416 3.59340911 128.04162667 3.3125 130.4375 C3.18077393 131.55568115 3.04904785 132.6738623 2.91333008 133.82592773 C2.22870224 139.93041072 1.86435848 145.85737689 2 152 C5.13609865 150.35647259 5.13609865 150.35647259 5.72021484 147.79019165 C5.88215332 146.87152313 6.0440918 145.95285461 6.2109375 145.00634766 C6.40123535 143.96411041 6.5915332 142.92187317 6.78759766 141.84805298 C6.98144043 140.71483612 7.1752832 139.58161926 7.375 138.4140625 C7.58560059 137.24676605 7.79620117 136.0794696 8.01318359 134.87680054 C8.68745479 131.1282288 9.34448792 127.37689356 10 123.625 C10.6584472 119.90940753 11.32056006 116.19451627 11.98681641 112.48031616 C12.4005578 110.16827499 12.80939245 107.85534825 13.21240234 105.54141235 C16.79381488 85.33323148 16.79381488 85.33323148 20.75 78.375 C22.09455325 76.06858149 22.09455325 76.06858149 23 74 C22.67 73.34 22.34 72.68 22 72 Z M20 185 C19.35228492 186.91603157 18.70690052 188.83285113 18.0625 190.75 C17.52302734 192.35101563 17.52302734 192.35101563 16.97265625 193.984375 C16.22017881 196.31735725 15.55022756 198.61374995 15 201 C19.66573782 200.61400037 19.66573782 200.61400037 23.9375 198.875 C25.69937187 195.76581435 25.48159369 193.49155423 25 190 C22.64581624 187.06026719 22.64581624 187.06026719 20 185 Z " fill="#ffffff" transform="translate(19,14)"/>
<path d="M0 0 C2.91517292 1.07401108 4.77810176 1.77810176 7 4 C8.35081515 12.57299518 9.65967616 25.33716005 5.05859375 33.03125 C2.85119334 35.66737505 0.68508571 37.86259423 -2 40 C-2.99 40.99 -2.99 40.99 -4 42 C-3.79149414 43.24418701 -3.58298828 44.48837402 -3.36816406 45.77026367 C-2.46819272 52.54102337 -4.92036424 58.344194 -7.109375 64.67578125 C-7.55664561 66.00785745 -8.00251768 67.34040395 -8.44708252 68.67338562 C-9.3845466 71.47191197 -10.33373248 74.26606816 -11.29248047 77.05737305 C-12.48908504 80.54179462 -13.66442492 84.03286544 -14.83180618 87.52717113 C-40.06650955 162.99784173 -40.06650955 162.99784173 -56 177 C-59.45612436 171.98672071 -62.76253297 166.88348018 -65.9375 161.6875 C-66.54464844 160.70136719 -67.15179688 159.71523437 -67.77734375 158.69921875 C-69 156 -69 156 -68.96875 154.0703125 C-67.81617543 151.6071491 -66.38134036 149.38624037 -64.86547852 147.13232422 C-51.86203078 127.72339324 -44.76247839 104.87519003 -37 83 C-36.41800351 81.39321657 -35.83597776 79.78644375 -35.25390625 78.1796875 C-32.8223053 71.3141781 -30.81473322 64.40054598 -29.0390625 57.3359375 C-28.77904701 56.30565681 -28.77904701 56.30565681 -28.51377869 55.25456238 C-27.64681614 51.80675539 -26.79775114 48.3560161 -25.9777832 44.89672852 C-23.59814741 35.20886626 -20.29645598 27.769474 -14.3125 19.8125 C-10.99355579 15.34493456 -7.72809326 10.84584826 -4.5 6.3125 C-4.05438721 5.68770752 -3.60877441 5.06291504 -3.1496582 4.41918945 C-2.09930108 2.94646214 -1.04957898 1.47328197 0 0 Z " fill="#ffffff" transform="translate(185,78)"/>
<path d="M0 0 C4.88631465 0.77486258 7.93503999 2.84875082 11.75 5.875 C12.33910156 6.32230469 12.92820312 6.76960938 13.53515625 7.23046875 C17.86939538 10.60818614 17.86939538 10.60818614 19 14 C18.04711914 15.91015625 18.04711914 15.91015625 16.53515625 18.0625 C15.98593506 18.85366211 15.43671387 19.64482422 14.87084961 20.45996094 C14.27409424 21.29817383 13.67733887 22.13638672 13.0625 23 C12.16640015 24.29212402 12.16640015 24.29212402 11.25219727 25.61035156 C8.75018746 29.20058857 6.239739 32.7644513 3.4921875 36.171875 C-0.31023354 40.94297365 -2.50293845 44.94614718 -3.98828125 50.90234375 C-4.15447968 51.55748459 -4.3206781 52.21262543 -4.49191284 52.88761902 C-5.00517904 54.92262136 -5.50409944 56.96070359 -6 59 C-6.4482312 60.81636963 -6.4482312 60.81636963 -6.90551758 62.66943359 C-7.50213483 65.10041397 -8.09564685 67.53215824 -8.6862793 69.96459961 C-15.04913667 96.0465229 -22.88142118 121.64777415 -30.9375 147.25 C-31.35918961 148.59649124 -31.35918961 148.59649124 -31.78939819 149.97018433 C-32.59232494 152.52879398 -33.40238941 155.08502693 -34.21484375 157.640625 C-34.45197083 158.39849808 -34.6890979 159.15637115 -34.93341064 159.93721008 C-36.29104452 164.17404776 -37.89212066 168.06135895 -40 172 C-42.86384753 169.45653352 -44.54295854 166.57845158 -46.43359375 163.265625 C-47.08263672 162.13382813 -47.73167969 161.00203125 -48.40039062 159.8359375 C-49.07953902 158.6406886 -49.75857465 157.44537561 -50.4375 156.25 C-51.11219055 155.07006099 -51.78731665 153.89037093 -52.46289062 152.7109375 C-53.74999241 150.46074172 -55.03196564 148.2076025 -56.30810547 145.95117188 C-57.31087487 144.20204106 -58.3336936 142.46376079 -59.39892578 140.75195312 C-61.99168364 136.57590824 -61.99168364 136.57590824 -62.03125 133.8359375 C-60.58277259 131.25720878 -58.69257989 129.60779602 -56.5 127.625 C-46.51281987 117.88036568 -40.39342484 106.18027453 -36 93 C-35.72978027 92.18934082 -35.45956055 91.37868164 -35.18115234 90.54345703 C-31.98728036 80.72889771 -29.24427912 70.91926161 -27.52734375 60.73828125 C-24.3688564 42.32601795 -20.14227725 28.97668032 -8.87109375 13.60986328 C-5.7124844 9.20413077 -2.86532475 4.59986166 0 0 Z " fill="#ffffff" transform="translate(153,54)"/>
<path d="M0 0 C0.33 0 0.66 0 1 0 C1.18613411 12.14440628 1.32789752 24.28846802 1.41449738 36.43401527 C1.45608144 42.07501575 1.51240019 47.71503364 1.60351562 53.35546875 C1.69104382 58.80855201 1.73840003 64.26069592 1.75901794 69.71442795 C1.77369267 71.78515773 1.80234762 73.85584155 1.84584045 75.92616653 C2.11425882 89.24442328 1.12491811 98.14614856 -7 109 C-7.75204712 110.04290192 -8.50409424 111.08580383 -9.27893066 112.16030884 C-11.46743286 115.14908765 -13.73334891 118.07011659 -16 121 C-17.91134394 123.5511755 -19.80096943 126.11794301 -21.6875 128.6875 C-22.34649292 129.57779907 -22.34649292 129.57779907 -23.01879883 130.48608398 C-23.4495874 131.07204346 -23.88037598 131.65800293 -24.32421875 132.26171875 C-24.76596436 132.85082031 -25.20770996 133.43992187 -25.6628418 134.046875 C-27.07657726 136.02798084 -27.07657726 136.02798084 -28.26879883 138.4375 C-29.66656292 140.99398663 -30.8985752 142.97531185 -33 145 C-36.82774104 146.10884004 -40.36586653 145.9063543 -44.3125 145.625 C-45.32634766 145.59277344 -46.34019531 145.56054688 -47.38476562 145.52734375 C-54.75913545 145.24086455 -54.75913545 145.24086455 -56 144 C-56.87607313 136.79751546 -55.61170859 131.84538571 -51.875 125.75 C-51.43486572 124.99404541 -50.99473145 124.23809082 -50.54125977 123.45922852 C-46.83990063 117.18212557 -42.87599265 111.06729443 -38.9375 104.9375 C-18.12551896 72.54378122 -7.99965494 37.33784742 0 0 Z " fill="#ffffff" transform="translate(191,143)"/>
<path d="M0 0 C4.55139819 0.46442839 8.31450256 2.48321194 12.3125 4.5625 C13.28026367 5.0565332 13.28026367 5.0565332 14.26757812 5.56054688 C15.84785228 6.36824255 17.42432105 7.18337613 19 8 C18.47486642 12.47467794 17.40012428 15.45596 15.015625 19.26171875 C5.09400177 36.01588305 1.62648085 50.84643389 -0.35314941 70.09559631 C-1.72443672 83.34815051 -4.39648106 97.80927227 -10 110 C-11.485 110.495 -11.485 110.495 -13 111 C-15.41989451 56.72209681 -15.41989451 56.72209681 -15 32 C-14.01 32.33 -13.02 32.66 -12 33 C-11.67201416 32.03586182 -11.34402832 31.07172363 -11.00610352 30.07836914 C-9.79210084 26.51225214 -8.57425511 22.94745776 -7.35522461 19.38305664 C-6.8274762 17.83816948 -6.3007803 16.29292236 -5.77514648 14.74731445 C-5.02081215 12.52981324 -4.26274126 10.3136207 -3.50390625 8.09765625 C-3.26845596 7.4028566 -3.03300568 6.70805695 -2.79042053 5.99220276 C-1.11387171 1.11387171 -1.11387171 1.11387171 0 0 Z " fill="#ffffff" transform="translate(118,36)"/>
<path d="M0 0 C6.85210711 2.53781745 9.86168605 9.28889934 12.88671875 15.4375 C16.53335243 23.83115506 17.55534088 32.65756206 15.34765625 41.66015625 C11.98069454 49.85357809 6.00270457 56.70527215 -1 62 C-2 60 -2 60 -1.29296875 57.34765625 C-0.74576172 55.72150391 -0.74576172 55.72150391 -0.1875 54.0625 C4.18950512 40.34081613 4.88052076 29.8590027 1 16 C-6.67540447 22.9981629 -10.67404443 30.97449969 -13.99584961 40.67895508 C-15.80748434 45.90374217 -15.80748434 45.90374217 -18 47 C-21.11089727 37.66730818 -19.9467606 25.416432 -15.69140625 16.6875 C-11.50820615 10.04075249 -6.17896649 4.78652334 0 0 Z " fill="#ffffff" transform="translate(91,12)"/>
<path d="M0 0 C0.33 0 0.66 0 1 0 C1 5.61 1 11.22 1 17 C-2.63 17 -6.26 17 -10 17 C-3.44624448 4.72263132 -3.44624448 4.72263132 0 0 Z " fill="#ffffff" transform="translate(191,271)"/>
</svg>
